<svg xmlns="http://www.w3.org/2000/svg" viewBox="0 0 93.86 126.27"><defs><style>.cls-1,.cls-4{fill:#203189;}.cls-2{fill:#fff;}.cls-3{fill:#f5d54e;}.cls-3,.cls-4{fill-rule:evenodd;}</style></defs><title>ukr</title><g id="Layer_2" data-name="Layer 2"><g id="Layer_1-2" data-name="Layer 1"><path class="cls-1" d="M9.11,0,0,18.54H6.67l1.54-3.43h7.73l1.55,3.43h6.78L15.13,0Zm4.81,10.54H10.24l1.84-4.12Z"/><path class="cls-1" d="M43.71,6.66a6.11,6.11,0,0,0-1.14-3.41A7.19,7.19,0,0,0,39.34.83,12.74,12.74,0,0,0,34.55,0H25.12V18.54h6.45V13.85h3A12.74,12.74,0,0,0,39.34,13a7.19,7.19,0,0,0,3.23-2.42,6.19,6.19,0,0,0,1.14-3.41,2.44,2.44,0,0,0,0-.27v0A1.48,1.48,0,0,0,43.71,6.66ZM37.22,7a1.83,1.83,0,0,1-.7,1.56,3.79,3.79,0,0,1-2.31.57H31.57V4.74h2.64a3.79,3.79,0,0,1,2.31.58,1.82,1.82,0,0,1,.7,1.55Z"/><polygon class="cls-1" points="63.86 0 57.36 9.83 50.7 0 45.45 0 45.45 18.54 51.47 18.54 51.47 10.43 55.81 16.8 58.76 16.8 63.13 10.2 63.18 18.54 69.18 18.54 69.12 0 63.86 0"/><path class="cls-1" d="M84.72,0h-6l-9.1,18.54h6.67l1.54-3.43h7.73l1.54,3.43h6.79ZM83.51,10.54H79.83l1.84-4.12Z"/><path class="cls-2" d="M46.83,27.72v96a89.72,89.72,0,0,0,13.44-3.23,49.57,49.57,0,0,0,8.82-3.81A43.59,43.59,0,0,0,85.8,100.52a45.3,45.3,0,0,0,5.71-22.9V27.72Zm4.79,4.7,3.52,3.38H83.3l3.52-3.38v5.63L69.22,55,51.62,38.05Z"/><path class="cls-1" d="M0,25.48V78.19C0,96,8.16,110,23.58,118.66a65.36,65.36,0,0,0,23.06,7.59h.18V25.48Z"/><path class="cls-1" d="M46.82,25.48v2.24H91.5v49.9a45.3,45.3,0,0,1-5.71,22.9,43.63,43.63,0,0,1-16.7,16.14c-8.12,4.6-18.5,6.4-22.27,7h0v2.56h.11l.28,0a64.77,64.77,0,0,0,23.08-7.67c15.42-8.74,23.57-22.9,23.57-41V25.48Z"/><polygon class="cls-3" points="24.73 39.34 26.24 44.14 31.28 44.1 27.18 47.03 28.78 51.8 24.73 48.81 20.68 51.8 22.27 47.03 18.17 44.1 23.21 44.14 24.73 39.34"/><polygon class="cls-3" points="24.73 61.81 26.24 66.61 31.28 66.57 27.18 69.49 28.78 74.27 24.73 71.28 20.68 74.27 22.27 69.49 18.17 66.57 23.21 66.61 24.73 61.81"/><polygon class="cls-3" points="24.73 84.27 26.24 89.08 31.28 89.03 27.18 91.96 28.78 96.74 24.73 93.74 20.68 96.74 22.27 91.96 18.17 89.03 23.21 89.08 24.73 84.27"/><path class="cls-4" d="M86.82,64.4V60.65a.08.08,0,0,0-.16,0A5.76,5.76,0,0,1,85.1,63a6.09,6.09,0,0,1-2.71,1.43Z"/><path class="cls-1" d="M86.82,64.4V75a42.42,42.42,0,0,1-13.2,31c-7.74,7.53-17,9.87-22,10.93V75.8A11.64,11.64,0,0,1,63.48,64.4h2.61l3.13,3,3.13-3Z"/><polygon class="cls-1" points="86.82 32.42 86.82 38.05 69.22 54.96 51.62 38.05 51.62 32.42 55.14 35.8 83.3 35.8 86.82 32.42"/><path class="cls-3" d="M72.48,82c-.42,3.54-.61,5.11-.61,5.11a1.07,1.07,0,0,1,.28,0c.19,0,1.18.24,1.18,1.09a1.19,1.19,0,0,1-1.19,1.16c-.37,0-.4-.07-.4-.07a10.89,10.89,0,0,1-1.83-6.09c0-2.34.17-4.48.17-5.68a3.39,3.39,0,0,0-.87-2.25,3.36,3.36,0,0,0-.86,2.25c0,1.2.16,3.34.16,5.68a10.93,10.93,0,0,1-1.82,6.09s0,.07-.41.07a1.19,1.19,0,0,1-1.18-1.16c0-.85,1-1.09,1.17-1.09a1,1,0,0,1,.28,0S66.37,85.55,66,82a7.39,7.39,0,0,0-3.78-5.11V93.28h4a5.93,5.93,0,0,0,2.39,3.78s.67.55.7.73c0-.18.7-.73.7-.73a5.92,5.92,0,0,0,2.4-3.78h4V76.9A7.37,7.37,0,0,0,72.48,82Zm-9.12-2.7a7.23,7.23,0,0,1,1.39,2.79c.17,1.39.51,4.1.51,4.1A2.28,2.28,0,0,0,64,87.65h-.64ZM66,92.17H63.36V88.78H64a2.45,2.45,0,0,0,2.23,1.71A6.27,6.27,0,0,0,66,92.17Zm2.63,3.43a4,4,0,0,1-1.22-2.32h1.22ZM67.2,92.16a4.24,4.24,0,0,1,.18-1.39,1.47,1.47,0,0,1,1.24,1.39Zm2-1.62-1.35-.88a12.38,12.38,0,0,0,1.35-3.06,12.18,12.18,0,0,0,1.36,3.06l-1.36.88Zm.61,5.06V93.28H71a3.93,3.93,0,0,1-1.21,2.32Zm0-3.44A1.48,1.48,0,0,1,71,90.77a4.18,4.18,0,0,1,.19,1.39Zm5.26,0H72.45a6.27,6.27,0,0,0-.25-1.68,2.43,2.43,0,0,0,2.22-1.71h.64Zm0-4.52h-.64a2.25,2.25,0,0,0-1.26-1.45s.35-2.71.52-4.1a7.28,7.28,0,0,1,1.38-2.79Z"/><path class="cls-1" d="M61.82,53.06a4,4,0,0,1-5.43,0,3.6,3.6,0,0,1,0-5.21Z"/><path class="cls-1" d="M82,47.85a3.58,3.58,0,0,1,0,5.21,4,4,0,0,1-5.42,0Z"/></g></g></svg>