<?xml version="1.0" encoding="UTF-8" standalone="no"?>
<!-- Created with Inkscape (http://www.inkscape.org/) -->

<svg
   xmlns:svg="http://www.w3.org/2000/svg"
   xmlns="http://www.w3.org/2000/svg"
   version="1.1"
   width="81.279999mm"
   height="135.433mm"
   viewBox="0 0 82.9592 138.231"
   id="svg2"
   xml:space="preserve"
   style="fill-rule:evenodd">
 <defs
   id="defs4">
  <style
   type="text/css"
   id="style6" />
 </defs>
 <g
   id="Layer_x0020_1">
  
  <path
   d="m 41.4796,0 c -3.21467,3.65539 -5.18495,8.45147 -5.18495,13.6883 0.207398,11.5365 1.60733,23.0471 1.73696,34.5836 0.259247,10.7328 -2.95542,20.8176 -6.87006,30.6431 -1.32216,2.7221 -2.7221,5.39235 -4.14796,8.0626 l -4.14796,-0.855517 c -3.75909,-0.751818 -6.19601,-4.38128 -5.4442,-8.11445 0.674043,-3.29244 3.55169,-5.5479 6.76636,-5.57382 l 1.50364,0.155548 -3.37022,-28.1543 C 21.20645,31.887461 14.75118,20.869461 5.21091,13.688361 3.55173,12.469901 1.81477,11.355131 4e-5,10.344071 l 0,100.120999 23.1249,0 c 1.73696,9.38476 6.89598,17.5511 14.1549,23.1767 1.73696,1.16661 3.16282,2.74802 4.19981,4.58868 1.03699,-1.84066 2.46285,-3.42207 4.19981,-4.58868 7.25893,-5.62567 12.418,-13.792 14.1549,-23.1767 l 23.1249,0 0,-100.120999 c -1.81473,1.01107 -3.55169,2.12583 -5.21087,3.34429 -9.54031,7.18115 -15.9956,18.1992 -17.1103,30.7467 l -3.37022,28.1543 1.50364,-0.155548 c 3.21467,0.02593 6.09232,2.28138 6.76636,5.57382 0.751818,3.73316 -1.68511,7.36263 -5.4442,8.11445 L 55.94571,86.9776 C 54.51985,84.30735 53.11991,81.6371 51.79775,78.915 47.88311,69.08952 44.66844,59.0048 44.92769,48.2719 45.057314,36.7354 46.45725,25.2248 46.66465,13.6883 46.66465,8.4515 44.69437,3.6554 41.4797,0 z M 6.9219,24.7841 c 4.48498,5.2368 7.49225,11.7698 8.37369,18.9769 l 2.77395,23.2545 c -3.52577,1.76288 -6.22194,4.97755 -7.233,8.86626 l -3.91464,0 0,-51.0977 z m 69.1154,0 0,51.0977 -3.91464,0 c -1.01107,-3.88871 -3.70724,-7.10338 -7.233,-8.86626 l 2.77395,-23.2545 c 0.881441,-7.20708 3.88871,-13.7401 8.37369,-18.9769 z M 41.4796,71.5005 c 1.84066,6.06639 4.40721,11.8217 7.57003,17.1881 -3.00727,0.933291 -5.65159,2.7221 -7.57003,5.10718 -1.91843,-2.411 -4.56276,-4.17388 -7.57003,-5.10718 3.16282,-5.36642 5.72937,-11.1217 7.57003,-17.1881 z m -34.5577,11.3032 3.91464,0 c 1.24439,4.77015 4.95163,8.55517 9.69586,9.8514 l 3.31837,0.777742 c -0.881441,3.21467 -1.37401,6.610808 -1.37401,10.110698 l -15.5548,0 0,-20.739798 z m 65.2007,0 3.91464,0 0,20.7398 -15.5548,0 c 0,-3.49984 -0.49257,-6.89598 -1.37401,-10.1107 l 3.31837,-0.777742 c 4.7183,-1.29624 8.45147,-5.08125 9.69586,-9.8514 z M 30.6171,95.0143 c 4.17388,0.596269 7.41448,4.17388 7.41448,8.52924 l -8.63294,0 c 0,-2.95542 0.440721,-5.80714 1.21846,-8.52924 z m 21.7249,0 c 0.777742,2.7221 1.21846,5.57382 1.21846,8.52924 l -8.63294,0 c 0,-4.35536 3.24059,-7.93297 7.41448,-8.52924 z m -22.1657,15.4511 7.8552,0 0,14.5438 c -3.81094,-3.99241 -6.58489,-8.99589 -7.8552,-14.5438 z m 14.7512,0 7.8552,0 c -1.27031,5.5479 -4.04426,10.5514 -7.8552,14.5438 l 0,-14.5438 z"
   id="path10"
   style="fill:#000000" />
 </g>
</svg>