<?xml version="1.0" standalone="no"?>
<!DOCTYPE svg PUBLIC "-//W3C//DTD SVG 1.1//EN" "http://www.w3.org/Graphics/SVG/1.1/DTD/svg11.dtd" >
<svg xmlns="http://www.w3.org/2000/svg" xmlns:xlink="http://www.w3.org/1999/xlink" version="1.1">
<metadata></metadata>
<defs>
<font id="uni_neueheavy" horiz-adv-x="630" >
<font-face units-per-em="1000" ascent="750" descent="-250" />
<missing-glyph horiz-adv-x="206" />
<glyph horiz-adv-x="0" />
<glyph horiz-adv-x="333" />
<glyph unicode=" "  horiz-adv-x="206" />
<glyph unicode="&#x09;" horiz-adv-x="206" />
<glyph unicode="&#xa0;" horiz-adv-x="206" />
<glyph unicode="!" horiz-adv-x="277" d="M187 218h-98q-17 0 -17 18l-10 284v177q0 18 17 18h118q18 0 18 -18v-177l-10 -284q0 -18 -18 -18zM229 77q0 -38 -26 -63.5t-65 -25.5t-64.5 25.5t-25.5 63.5q0 39 25 64t65 25t65.5 -25t25.5 -64z" />
<glyph unicode="&#x22;" horiz-adv-x="401" d="M190 696l-29 -246q-2 -17 -19 -17h-76q-16 0 -16 18l9 246q0 18 19 18h96q19 0 16 -19zM363 696l-29 -246q-2 -17 -19 -17h-76q-16 0 -16 18l9 246q0 18 18 18h97q19 0 16 -19z" />
<glyph unicode="#" horiz-adv-x="794" d="M219 0h-91q-9 0 -13 5.5t-1 14.5l46 161h-119q-9 0 -13 6t-1 14l22 76q3 15 19 15h123l35 128h-118q-20 0 -15 20l22 76q5 15 20 15h123l48 169q3 15 19 15h91q9 0 13.5 -5.5t1.5 -14.5l-47 -164h123l48 169q5 15 20 15h91q20 0 15 -20l-47 -164h118q20 0 15 -19l-22 -77 q-5 -15 -20 -15h-122l-36 -128h118q9 0 13 -5.5t1 -13.5l-21 -77q-4 -15 -20 -15h-122l-47 -166q-5 -15 -20 -15h-91q-20 0 -15 20l47 161h-124l-47 -166q-5 -15 -20 -15zM353 420l-35 -128h123l35 128h-123z" />
<glyph unicode="$" horiz-adv-x="617" d="M330 435q34 -8 54.5 -13.5t51.5 -16t49 -21t40.5 -27.5t34 -36.5t20 -47.5t8.5 -61q0 -99 -63.5 -153.5t-159.5 -67.5v-77q0 -18 -18 -18h-90q-18 0 -18 18v78q-102 14 -203 94q-13 10 -3 25l68 95q10 15 24 4q97 -68 189 -69q44 0 75 18t31 51q0 16 -8.5 28t-29 21 t-39 14t-52.5 13q-51 12 -86 25t-77.5 38.5t-65 67t-22.5 97.5q0 90 53.5 142t145.5 66v73q0 18 18 18h90q18 0 18 -18v-69q97 -12 194 -76q14 -10 5 -25l-64 -95q-10 -14 -25 -5q-81 51 -172 51q-45 0 -70.5 -17.5t-25.5 -49.5q0 -29 28.5 -43.5t94.5 -30.5z" />
<glyph unicode="%" horiz-adv-x="824" d="M328 474q0 -67 -41 -104t-107 -37q-65 0 -106.5 37t-41.5 104v106q0 67 41 103.5t107 36.5q67 0 107.5 -36.5t40.5 -103.5v-106zM234 0h-88q-10 0 -13 6.5t2 14.5l429 680q7 11 22 11h87q10 0 13.5 -6.5t-1.5 -14.5l-430 -680q-7 -11 -21 -11zM138 476q0 -24 12 -35.5 t30 -11.5q43 0 43 47v102q0 23 -12 34.5t-31 11.5q-18 0 -30 -11.5t-12 -34.5v-102zM792 134q0 -67 -41 -104t-107 -37t-107 37t-41 104v106q0 67 41 103.5t107 36.5t107 -36.5t41 -103.5v-106zM602 135q0 -23 12 -34.5t30 -11.5t30 11.5t12 34.5v103q0 22 -12 34t-30 12 t-30 -12t-12 -34v-103z" />
<glyph unicode="&#x26;" horiz-adv-x="626" d="M424 55q-78 -66 -172 -66q-91 0 -155 58.5t-64 152.5q0 68 34.5 115.5t93.5 85.5q-63 85 -63 155q0 73 55 122.5t135 49.5q81 0 133 -49.5t52 -126.5q-1 -62 -34.5 -106t-92.5 -83q13 -16 38.5 -48t38.5 -48q24 36 37 68q8 16 23 9l85 -39q15 -7 9 -23q-22 -57 -66 -127 q17 -22 51.5 -67t51.5 -67q7 -8 4 -14.5t-14 -6.5h-126q-14 0 -21 10zM232 556q0 -40 38 -90q35 23 52.5 43t17.5 47q0 23 -14 39t-39 16t-40 -16t-15 -39zM172 201q0 -36 25.5 -59t62.5 -23q48 0 85 40q-91 116 -106 136q-67 -46 -67 -94z" />
<glyph unicode="'" horiz-adv-x="229" d="M191 696l-30 -247q-1 -16 -18 -16h-76q-17 0 -17 17l9 247q0 18 19 18h96q18 0 17 -19z" />
<glyph unicode="(" horiz-adv-x="318" d="M294 -116h-109q-13 0 -21 12q-126 229 -126 460t126 460q8 12 21 12h109q11 0 14 -6t-3 -15q-130 -221 -130 -451t130 -451q6 -9 3 -15t-14 -6z" />
<glyph unicode=")" horiz-adv-x="318" d="M132 -116h-109q-11 0 -14 6t3 15q130 221 130 451t-130 451q-6 9 -3 15t14 6h109q14 0 21 -12q126 -229 126 -460t-126 -460q-7 -12 -21 -12z" />
<glyph unicode="*" horiz-adv-x="460" d="M152 340l-71 50q-13 10 -4 24l55 75l-88 29q-17 5 -11 21l26 83q6 17 22 12l88 -29v92q0 18 18 18h86q18 0 18 -18v-92l88 28q16 6 21 -11l27 -82q6 -16 -11 -22l-88 -28l54 -75q10 -15 -3 -25l-70 -51q-14 -10 -25 4l-54 75l-54 -75q-10 -13 -24 -3z" />
<glyph unicode="+" d="M388 406h151q18 0 18 -18v-107q0 -18 -18 -18h-151v-153q0 -18 -18 -18h-111q-17 0 -17 18v153h-152q-17 0 -17 18v107q0 18 17 18h152v153q0 18 17 18h111q18 0 18 -18v-153z" />
<glyph unicode="," horiz-adv-x="251" d="M208 126l-80 -249q-5 -14 -20 -14h-87q-20 0 -15 19l59 248q5 16 19 16h109q20 0 15 -20z" />
<glyph unicode="-" horiz-adv-x="402" d="M328 231h-254q-18 0 -18 18v100q0 18 18 18h254q18 0 18 -18v-100q0 -18 -18 -18z" />
<glyph unicode="." horiz-adv-x="255" d="M217 78q0 -37 -25.5 -62t-64.5 -25t-64 25t-25 62q0 39 24.5 63.5t64.5 24.5t65 -24.5t25 -63.5z" />
<glyph unicode="/" horiz-adv-x="476" d="M450 695l-278 -682q-4 -13 -20 -13h-115q-21 0 -13 20l280 682q4 13 20 13h113q10 0 13.5 -5.5t-0.5 -14.5z" />
<glyph unicode="0" horiz-adv-x="623" d="M570 248q0 -127 -71.5 -194t-186.5 -67t-187 67t-72 194v224q0 124 72 190t187 66t186.5 -66t71.5 -190v-224zM208 241q0 -55 29 -80.5t75 -25.5t75 25.5t29 80.5v234q0 55 -29 80.5t-75 25.5t-75 -25.5t-29 -80.5v-234z" />
<glyph unicode="1" horiz-adv-x="404" d="M317 1h-121q-17 0 -17 17v513l-88 -64q-15 -10 -25 5l-56 88q-8 12 5 24l174 124q10 7 22 7h106q17 0 17 -18v-679q0 -17 -17 -17z" />
<glyph unicode="2" horiz-adv-x="575" d="M515 0h-464q-18 0 -18 18v87q0 13 9 22l164 165q91 91 125 135.5t34 85.5q0 31 -20.5 51.5t-64.5 20.5q-70 0 -141 -69q-12 -14 -24 1l-62 83q-9 14 1 25q101 103 232 103q107 0 171 -55.5t64 -155.5q0 -58 -26.5 -108.5t-86.5 -119.5q-64 -73 -148 -149h255q18 0 18 -17 v-105q0 -18 -18 -18z" />
<glyph unicode="3" horiz-adv-x="576" d="M539 230q0 -116 -71 -179t-195 -63q-145 0 -245 86q-11 11 0 25l59 83q10 13 25 0q39 -25 74 -37.5t87 -12.5q51 0 79.5 26.5t28.5 78.5q0 96 -116 96q-30 0 -66 -9q-14 -4 -22 11l-24 55q-6 13 5 24l159 160h-239q-17 0 -17 17v106q0 18 17 18h417q17 0 17 -18v-83 q0 -13 -9 -22l-162 -162v-2q82 3 140 -53t58 -145z" />
<glyph unicode="4" horiz-adv-x="600" d="M483 0h-119q-18 0 -18 18v109h-305q-18 0 -18 17v87q0 9 5 22l233 449q6 13 20 13h134q23 0 13 -21l-220 -430h138l13 128q3 16 19 16h105q18 0 18 -17v-127h58q17 0 17 -17v-103q0 -17 -17 -17h-58v-109q0 -18 -18 -18z" />
<glyph unicode="5" horiz-adv-x="591" d="M556 238q0 -115 -71 -182.5t-193 -67.5q-150 0 -245 87q-10 12 0 25l62 82q10 13 25 1q74 -51 154 -51q113 0 113 110q0 96 -109 96q-69 0 -118 -33q-13 -9 -24 -5l-77 25q-15 5 -15 20l13 352q0 18 18 18h404q18 0 18 -18v-108q0 -17 -18 -17h-277l-5 -134q42 29 112 29 q107 0 170 -61.5t63 -167.5z" />
<glyph unicode="6" horiz-adv-x="606" d="M210 422q52 34 124 34q109 0 173 -59t64 -163q0 -111 -70.5 -179t-187.5 -68q-116 0 -187.5 67t-71.5 175v244q0 118 73 186.5t187 68.5q126 0 220 -68q13 -10 4 -24l-57 -88q-10 -14 -25 -5q-60 42 -139 42q-50 0 -78.5 -28.5t-28.5 -79.5v-55zM210 236q0 -50 27 -77 t75 -27q47 0 74 27.5t27 76.5q0 45 -25.5 70t-74.5 25q-47 0 -75 -24.5t-28 -70.5z" />
<glyph unicode="7" horiz-adv-x="537" d="M238 0h-134q-10 0 -13.5 6t0.5 15l243 549h-293q-18 0 -18 17v110q0 18 18 18h458q18 0 18 -18v-84q0 -9 -5 -22l-253 -577q-6 -14 -21 -14z" />
<glyph unicode="8" horiz-adv-x="628" d="M584 215q0 -107 -72.5 -167.5t-197.5 -60.5t-197.5 60.5t-72.5 167.5q0 55 25 99t71 67q-76 57 -76 147q0 87 69 143.5t181 56.5t181 -56.5t69 -143.5q0 -91 -75 -147q46 -24 70.5 -67.5t24.5 -98.5zM202 217q0 -41 30 -66t82 -25t82 24.5t30 66.5q0 40 -29.5 63 t-82.5 23q-52 0 -82 -23t-30 -63zM214 516q0 -39 26.5 -61t73.5 -22t74 22t27 61q0 36 -27 56.5t-74 20.5t-73.5 -20.5t-26.5 -56.5z" />
<glyph unicode="9" horiz-adv-x="608" d="M38 482q0 111 70.5 178.5t187.5 67.5q116 0 187 -67t71 -174v-245q0 -118 -72.5 -186.5t-186.5 -68.5q-133 0 -231 72q-14 10 -5 25l58 93q9 15 25 4q67 -49 149 -49q50 0 78.5 28.5t28.5 81.5v52q-50 -34 -123 -34q-109 0 -173 59t-64 163zM195 483q0 -97 102 -97 q45 0 73 24.5t28 70.5v8q0 44 -27.5 70.5t-73.5 26.5q-48 0 -75 -27t-27 -76z" />
<glyph unicode=":" horiz-adv-x="283" d="M229 445q0 -40 -24 -64t-64 -24q-39 0 -63 24t-24 64t24 64.5t63 24.5q40 0 64 -24.5t24 -64.5zM229 79q0 -40 -24 -64.5t-64 -24.5q-39 0 -63 24.5t-24 64.5t24 64t63 24q40 0 64 -24t24 -64z" />
<glyph unicode=";" horiz-adv-x="284" d="M121 -137h-88q-20 0 -15 19l59 253q5 15 19 15h109q20 0 15 -20l-80 -252q-4 -15 -19 -15zM234 445q0 -40 -24 -64t-64 -24q-39 0 -63 24t-24 64t24 64.5t63 24.5q40 0 64 -24.5t24 -64.5z" />
<glyph unicode="&#x3c;" d="M539 199v-124q0 -10 -6 -13.5t-15 0.5l-450 214q-13 6 -13 20v68q0 13 13 20l450 214q9 4 15 0.5t6 -13.5v-124q0 -15 -14 -21l-273 -110l273 -111q14 -5 14 -20z" />
<glyph unicode="=" d="M539 367h-449q-17 0 -17 17v108q0 17 17 17h449q18 0 18 -17v-108q0 -17 -18 -17zM539 154h-449q-17 0 -17 18v107q0 17 17 17h449q18 0 18 -17v-107q0 -18 -18 -18z" />
<glyph unicode="&#x3e;" d="M562 276l-450 -214q-9 -4 -15 -0.5t-6 13.5v124q0 15 14 20l272 111l-272 110q-14 6 -14 21v124q0 10 6 13.5t15 -0.5l450 -214q13 -7 13 -20v-68q0 -14 -13 -20z" />
<glyph unicode="?" horiz-adv-x="512" d="M290 214h-111q-18 0 -18 17v39q0 42 17.5 72.5t42 48.5t49 33.5t42 37.5t17.5 51q0 35 -22.5 57.5t-70.5 22.5q-72 0 -128 -49q-14 -13 -24 2l-56 84q-9 12 2 24q34 31 91.5 52.5t122.5 21.5q100 0 168 -53.5t68 -157.5q0 -48 -17.5 -82.5t-43 -53.5t-51 -35.5t-43 -40 t-17.5 -56.5v-21q0 -14 -18 -14zM325 78q0 -38 -25 -63t-64 -25t-64 25t-25 63t24.5 62.5t64.5 24.5q39 0 64 -24.5t25 -62.5z" />
<glyph unicode="@" horiz-adv-x="907" d="M611 -82q-36 -18 -91.5 -29.5t-94.5 -11.5q-186 0 -281.5 98t-95.5 275v135q0 156 102.5 249.5t301.5 93.5q276 0 393 -172q7 -10 7 -22v-255q0 -95 -46.5 -147.5t-115.5 -52.5q-73 0 -112 36q-46 -38 -138 -38q-73 0 -121 50t-48 122v96q0 79 47 127t134 48 q99 0 175 -40q12 -8 12 -21v-223q0 -48 47 -48q50 1 50 62v262q-37 46 -110 77t-165 31q-146 0 -219.5 -64t-73.5 -177v-129q0 -124 63.5 -194t180.5 -70q97 0 173 33q17 8 22 -11l16 -68q3 -15 -12 -22zM392 267q0 -79 65 -79q35 0 62 16v194q-19 12 -57 12 q-33 0 -51.5 -19t-18.5 -53v-71z" />
<glyph unicode="A" horiz-adv-x="664" d="M153 0h-134q-21 0 -14 20l232 681q6 14 19 14h152q14 0 19 -14l232 -681q8 -20 -14 -20h-133q-16 0 -21 15l-37 122h-243l-38 -122q-4 -15 -20 -15zM330 540q-5 -16 -33.5 -114.5t-44.5 -149.5h161q-3 10 -79 264h-4z" />
<glyph unicode="B" horiz-adv-x="650" d="M582 513q0 -91 -69 -132q99 -41 99 -160q0 -104 -64.5 -162.5t-180.5 -58.5h-275q-18 0 -18 18v679q0 18 18 18h273q103 0 160 -53t57 -149zM235 142h122q42 0 66.5 21t24.5 63q0 81 -95 81h-118v-165zM418 506q0 34 -19.5 52t-55.5 18h-108v-140h108q75 0 75 70z" />
<glyph unicode="C" horiz-adv-x="594" d="M571 59q-98 -73 -227 -73q-135 0 -213.5 69.5t-78.5 197.5v209q0 128 78.5 197t210.5 69q123 0 214 -64q15 -9 5 -23l-63 -96q-10 -14 -25 -5q-56 36 -128 36q-62 0 -95.5 -32.5t-33.5 -87.5v-196q0 -58 34 -89.5t96 -31.5q77 0 139 42q15 11 24 -4l64 -96q10 -14 -1 -22 z" />
<glyph unicode="D" horiz-adv-x="673" d="M338 0h-246q-18 0 -18 18v679q0 18 18 18h246q130 0 206.5 -66t76.5 -213v-159q0 -277 -283 -277zM235 565v-414h105q116 0 116 119v174q0 121 -116 121h-105z" />
<glyph unicode="E" horiz-adv-x="592" d="M235 291v-146h297q18 0 18 -17v-110q0 -18 -18 -18h-440q-18 0 -18 18v679q0 18 18 18h424q18 0 18 -18v-110q0 -17 -18 -17h-281v-137h248q18 0 18 -17v-108q0 -17 -18 -17h-248z" />
<glyph unicode="F" horiz-adv-x="570" d="M543 697v-114q0 -17 -18 -17h-290v-157h248q17 0 17 -18v-109q0 -18 -17 -18h-248v-246q0 -18 -18 -18h-125q-18 0 -18 18v679q0 18 18 18h433q18 0 18 -18z" />
<glyph unicode="G" horiz-adv-x="655" d="M598 91q-47 -48 -114 -76t-143 -28q-131 0 -210 70t-79 197v209q0 127 78.5 196t209.5 69q135 0 240 -65q15 -10 5 -25l-67 -96q-10 -14 -24 -4q-65 38 -155 38q-58 0 -91 -30.5t-33 -87.5v-199q0 -59 33.5 -89t92.5 -30q65 0 111 28v115h-107q-17 0 -17 18v98 q0 17 17 17h243q17 0 17 -17v-288q0 -13 -7 -20z" />
<glyph unicode="H" horiz-adv-x="695" d="M460 435v262q0 18 18 18h125q18 0 18 -18v-679q0 -18 -18 -18h-125q-18 0 -18 18v268h-225v-268q0 -18 -18 -18h-125q-18 0 -18 18v679q0 18 18 18h125q18 0 18 -18v-262h225z" />
<glyph unicode="I" horiz-adv-x="309" d="M235 697v-679q0 -18 -18 -18h-125q-18 0 -18 18v679q0 18 18 18h125q18 0 18 -18z" />
<glyph unicode="J" horiz-adv-x="529" d="M462 255q0 -127 -67 -197t-181 -70q-111 0 -204 71q-13 8 -5 23l60 95q9 15 25 4q57 -41 120 -41q91 0 91 114v443q0 18 17 18h126q18 0 18 -18v-442z" />
<glyph unicode="K" horiz-adv-x="645" d="M217 0h-125q-18 0 -18 18v679q0 18 18 18h125q18 0 18 -18v-252l192 259q8 11 22 11h158q11 0 14.5 -6t-3.5 -15l-238 -292l266 -381q7 -8 3.5 -14.5t-14.5 -6.5h-154q-13 0 -21 12l-181 267l-44 -50v-211q0 -18 -18 -18z" />
<glyph unicode="L" horiz-adv-x="536" d="M508 0h-416q-18 0 -18 18v679q0 18 18 18h126q17 0 17 -18v-548h273q17 0 17 -17v-114q0 -18 -17 -18z" />
<glyph unicode="M" horiz-adv-x="871" d="M215 0h-123q-18 0 -18 18v679q0 18 18 18h142q14 0 20 -13l90 -174q35 -68 90 -197h4q38 95 89 197l91 174q6 13 20 13h142q17 0 17 -18v-679q0 -18 -17 -18h-124q-18 0 -18 18v132q0 145 10 320l-4 1q-37 -90 -91 -201l-49 -99q-6 -13 -20 -13h-96q-15 0 -20 13l-50 99 q-54 111 -91 201l-4 -1q10 -175 10 -320v-132q0 -18 -18 -18z" />
<glyph unicode="N" horiz-adv-x="711" d="M216 0h-124q-18 0 -18 18v679q0 18 18 18h133q14 0 20 -12l134 -239q79 -151 107 -214l3 1q-11 141 -11 267v179q0 18 18 18h124q17 0 17 -18v-679q0 -18 -17 -18h-133q-13 0 -21 12l-130 216q-61 103 -116 233l-3 -1q16 -162 16 -285v-157q0 -18 -17 -18z" />
<glyph unicode="O" horiz-adv-x="685" d="M634 272q0 -134 -77 -209t-215 -75q-137 0 -214 75t-77 209v173q0 133 77 208t214 75q138 0 215 -74.5t77 -208.5v-173zM215 275q0 -135 127 -135t127 135v167q0 134 -127 134t-127 -134v-167z" />
<glyph unicode="P" horiz-adv-x="637" d="M91 715h265q118 0 187 -68.5t69 -184.5q0 -117 -69 -185.5t-187 -68.5h-122v-190q0 -18 -17 -18h-126q-17 0 -17 18v679q0 18 17 18zM234 357h100q113 0 113 105t-113 105h-100v-210z" />
<glyph unicode="Q" horiz-adv-x="689" d="M653 7l-81 -73q-12 -12 -25 0l-72 77q-58 -23 -133 -23q-137 0 -214.5 75t-77.5 208v174q0 133 77.5 208t214.5 75q138 0 215 -74.5t77 -208.5v-174q0 -104 -45 -172l64 -67q13 -12 0 -25zM215 274q0 -134 127 -134t127 134v168q0 134 -127 134t-127 -134v-168z" />
<glyph unicode="R" horiz-adv-x="644" d="M605 0h-147q-14 0 -20 12l-139 227h-64v-221q0 -18 -18 -18h-125q-18 0 -18 18v679q0 18 18 18h243q126 0 196 -64.5t70 -176.5q0 -77 -37 -131t-107 -80l160 -242q5 -9 1.5 -15t-13.5 -6zM330 567h-95v-188h95q55 0 80.5 22.5t25.5 71.5q0 48 -25.5 71t-80.5 23z" />
<glyph unicode="S" horiz-adv-x="628" d="M596 212q0 -104 -77.5 -164t-209.5 -60q-76 0 -137 23t-126 75q-13 10 -4 24l68 97q10 14 24 3q97 -68 186 -69q50 0 80.5 17t30.5 49q0 24 -19.5 40.5t-43.5 24.5t-66 16q-251 52 -251 233q0 100 75.5 153.5t195.5 53.5q126 0 242 -77q16 -10 5 -24l-64 -96 q-10 -14 -25 -5q-79 50 -166 50q-99 0 -99 -60q0 -31 27.5 -45t99.5 -31q60 -15 100 -30t78 -40.5t57 -65t19 -92.5z" />
<glyph unicode="T" horiz-adv-x="586" d="M30 715h526q17 0 17 -18v-114q0 -17 -17 -17h-183v-548q0 -18 -17 -18h-126q-17 0 -17 18v548h-183q-18 0 -18 17v114q0 18 18 18z" />
<glyph unicode="U" horiz-adv-x="693" d="M625 263q0 -131 -73.5 -203t-205.5 -72t-205 72t-73 203v434q0 18 18 18h127q18 0 18 -18v-434q0 -60 29.5 -91.5t85.5 -31.5t86.5 31.5t30.5 91.5v434q0 18 17 18h128q17 0 17 -18v-434z" />
<glyph unicode="V" horiz-adv-x="670" d="M413 0h-156q-14 0 -19 14l-234 681q-7 20 14 20h136q15 0 19 -15l105 -324q18 -56 55 -195h5q36 133 55 194l104 325q5 15 20 15h135q22 0 14 -20l-234 -681q-5 -14 -19 -14z" />
<glyph unicode="W" horiz-adv-x="997" d="M359 0h-143q-16 0 -20 15l-189 680q-7 20 15 20h133q16 0 19 -16l55 -228q34 -143 56 -284h4q22 125 65 288l58 215q4 15 20 15h133q16 0 19 -15l60 -215q40 -156 63 -288h4q25 150 57 284l54 228q3 16 19 16h134q9 0 13.5 -5.5t1.5 -14.5l-189 -680q-5 -15 -20 -15h-143 q-16 0 -20 15l-65 229q-35 128 -53 259h-4q-15 -125 -52 -259l-65 -229q-4 -15 -20 -15z" />
<glyph unicode="X" horiz-adv-x="626" d="M414 359l199 -338q5 -8 1.5 -14.5t-13.5 -6.5h-147q-14 0 -20 13l-121 226l-120 -226q-8 -13 -21 -13h-147q-10 0 -13.5 6.5t1.5 14.5l200 338l-184 335q-5 9 -1.5 15t14.5 6h141q14 0 20 -13l110 -227l110 227q6 13 20 13h142q10 0 13.5 -6t-0.5 -15z" />
<glyph unicode="Y" horiz-adv-x="613" d="M369 0h-127q-17 0 -17 18v237l-222 439q-5 9 -1 15t14 6h140q14 0 20 -14l130 -293l129 293q5 14 20 14h140q10 0 13.5 -6t-0.5 -15l-222 -440v-236q0 -18 -17 -18z" />
<glyph unicode="Z" horiz-adv-x="618" d="M564 0h-512q-18 0 -18 18v77q0 11 7 23l313 448h-282q-18 0 -18 18v113q0 18 18 18h482q18 0 18 -18v-74q0 -14 -7 -22l-309 -452h308q17 0 17 -17v-114q0 -18 -17 -18z" />
<glyph unicode="[" horiz-adv-x="318" d="M204 704v-696h67q17 0 17 -18v-89q0 -17 -17 -17h-187q-18 0 -18 17v909q0 18 18 18h187q17 0 17 -18v-88q0 -18 -17 -18h-67z" />
<glyph unicode="\" horiz-adv-x="476" d="M303 13l-278 682q-4 9 -0.5 14.5t13.5 5.5h113q16 0 20 -13l280 -682q8 -20 -13 -20h-115q-16 0 -20 13z" />
<glyph unicode="]" horiz-adv-x="318" d="M114 8v696h-67q-17 0 -17 18v88q0 18 17 18h187q18 0 18 -18v-909q0 -17 -18 -17h-187q-17 0 -17 17v89q0 18 17 18h67z" />
<glyph unicode="^" d="M177 549h-121q-11 0 -14.5 6t3.5 15l194 242q8 10 21 10h111q11 0 21 -10l193 -242q7 -9 4 -15t-14 -6h-121q-13 0 -21 11l-118 153l-117 -153q-9 -11 -21 -11z" />
<glyph unicode="_" horiz-adv-x="552" d="M527 -31v-91q0 -18 -18 -18h-466q-18 0 -18 18v91q0 18 18 18h466q18 0 18 -18z" />
<glyph unicode="`" horiz-adv-x="257" d="M207 595h-87q-14 0 -21 10l-106 131q-7 9 -4.5 15.5t13.5 6.5h113q13 0 21 -12l82 -130q6 -8 2.5 -14.5t-13.5 -6.5z" />
<glyph unicode="a" horiz-adv-x="527" d="M53 479q86 55 206 55q106 0 162.5 -56t56.5 -168v-274q0 -15 -15 -20q-95 -29 -206 -29t-173 43t-62 129q0 77 57 116.5t161 39.5q35 0 85 -6v10q0 42 -18.5 62t-65.5 20q-74 0 -125 -28q-16 -9 -24 6l-41 78q-8 15 2 22zM177 163q0 -52 80 -52q32 0 68 8v88q-30 6 -69 6 q-79 0 -79 -50z" />
<glyph unicode="b" horiz-adv-x="556" d="M208 517q47 17 93 17q97 0 156.5 -60t59.5 -161v-99q0 -106 -65 -166.5t-172 -60.5q-111 0 -211 36q-14 6 -14 21v653q0 18 18 18h118q17 0 17 -18v-180zM277 123q85 0 85 88v104q0 86 -84 86q-38 0 -70 -17v-250q30 -11 69 -11z" />
<glyph unicode="c" horiz-adv-x="473" d="M454 42q-78 -55 -177 -55q-112 0 -174.5 58.5t-62.5 159.5v113q0 100 62.5 158t173.5 58q87 0 164 -47q14 -10 5 -25l-53 -80q-8 -14 -25 -6q-43 23 -84 23t-64.5 -21.5t-23.5 -59.5v-113q0 -41 23.5 -62t63.5 -21q50 0 96 29q15 9 25 -5l54 -80q10 -14 -3 -24z" />
<glyph unicode="d" horiz-adv-x="556" d="M348 517v180q0 18 17 18h118q18 0 18 -18v-653q0 -15 -14 -21q-100 -36 -211 -36q-107 0 -172 60.5t-65 166.5v99q0 101 59.5 161t156.5 60q46 0 93 -17zM195 211q0 -89 84 -89q39 0 69 11v251q-32 17 -70 17q-83 0 -83 -86v-104z" />
<glyph unicode="e" horiz-adv-x="530" d="M495 321v-96q0 -17 -18 -17h-283v-16q0 -38 23 -57.5t63 -19.5q65 0 127 36q13 10 23 -4l52 -69q10 -15 -3 -25q-86 -66 -204 -66q-103 0 -169 54t-66 154v126q0 106 65 159.5t167 53.5q99 0 161 -53t62 -160zM348 328q0 39 -21 59t-56 20q-77 0 -77 -79v-21h154v21z" />
<glyph unicode="f" horiz-adv-x="338" d="M317 594q-24 2 -42 2q-66 0 -66 -72v-17h94q17 0 17 -17v-96q0 -17 -17 -17h-94v-359q0 -18 -17 -18h-118q-18 0 -18 18v512q0 95 52.5 146.5t140.5 51.5q42 0 66 -4q15 -3 15 -20v-93q0 -8 -3.5 -13t-9.5 -4z" />
<glyph unicode="g" horiz-adv-x="554" d="M500 50q0 -130 -56.5 -191t-181.5 -61q-116 0 -198 54q-13 10 -4 25l53 81q9 13 23 5q56 -33 120 -33q49 0 72 22t22 76q-47 -15 -93 -15q-98 0 -158 57t-60 157v82q0 112 66 168.5t174 56.5q105 0 208 -40q13 -6 13 -21v-423zM194 225q0 -81 83 -81q48 0 70 17v227 q-25 10 -67 10q-86 0 -86 -85v-88z" />
<glyph unicode="h" horiz-adv-x="567" d="M209 518q43 16 101 16q95 0 151 -60.5t56 -170.5v-285q0 -18 -18 -18h-118q-18 0 -18 18v285q0 51 -20.5 73.5t-64.5 22.5q-37 0 -69 -13v-368q0 -18 -17 -18h-118q-18 0 -18 18v679q0 18 18 18h118q17 0 17 -18v-179z" />
<glyph unicode="i" horiz-adv-x="265" d="M192 0h-118q-18 0 -18 18v485q0 17 18 17h118q17 0 17 -17v-485q0 -18 -17 -18zM217 676q0 -36 -23.5 -60t-60.5 -24t-61 24t-24 60q0 37 24 60.5t61 23.5t60.5 -23.5t23.5 -60.5z" />
<glyph unicode="j" horiz-adv-x="273" d="M217 -9q0 -92 -48 -143t-136 -51q-32 0 -57 5q-15 3 -15 19v99q0 19 18 17q9 -1 27 -1q58 0 58 73v494q0 17 18 17h118q17 0 17 -17v-512zM226 676q0 -36 -24 -60t-60 -24q-37 0 -61 24t-24 60q0 37 24 60.5t61 23.5t60.5 -23.5t23.5 -60.5z" />
<glyph unicode="k" horiz-adv-x="525" d="M515 0h-141q-16 0 -21 12l-117 180l-28 -30v-144q0 -18 -18 -18h-116q-18 0 -18 18v679q0 18 18 18h116q18 0 18 -18v-353l127 165q7 11 21 11h139q11 0 13.5 -6t-4.5 -15l-169 -198l191 -280q6 -9 3 -15t-14 -6z" />
<glyph unicode="l" horiz-adv-x="322" d="M303 -7q-34 -6 -66 -6q-88 0 -136.5 51t-48.5 143v516q0 18 18 18h118q17 0 17 -18v-497q0 -73 59 -73q21 0 31 1q19 2 19 -17v-100q0 -16 -11 -18z" />
<glyph unicode="m" horiz-adv-x="822" d="M399 491q79 42 150 42q101 0 162 -57.5t61 -161.5v-296q0 -18 -17 -18h-116q-18 0 -18 18v301q0 78 -77 78q-34 0 -65 -16q10 -29 10 -65v-298q0 -18 -17 -18h-116q-18 0 -18 18v301q0 79 -73 79q-30 0 -59 -9v-371q0 -18 -18 -18h-116q-18 0 -18 18v454q0 15 14 22 q94 39 195 39q77 0 136 -42z" />
<glyph unicode="n" horiz-adv-x="565" d="M190 -1h-118q-18 0 -18 18v455q0 15 13 21q100 41 210 41q114 0 176 -60t62 -172v-285q0 -18 -18 -18h-118q-18 0 -18 18v285q0 52 -21 74t-63 22q-41 0 -70 -9v-372q0 -18 -17 -18z" />
<glyph unicode="o" horiz-adv-x="555" d="M515 199q0 -99 -63.5 -155.5t-173.5 -56.5t-174 56.5t-64 155.5v120q0 100 64 157.5t174 57.5t173.5 -57.5t63.5 -157.5v-120zM196 199q0 -77 82 -77t82 77v120q0 38 -21 58.5t-61 20.5t-61 -20.5t-21 -58.5v-120z" />
<glyph unicode="p" horiz-adv-x="555" d="M67 496q101 38 212 38q107 0 172 -60.5t65 -166.5v-99q0 -101 -60 -161t-157 -60q-49 0 -92 17v-176q0 -18 -17 -18h-118q-18 0 -18 18v649q0 15 13 19zM277 120q84 0 84 85v105q0 88 -85 88q-39 0 -69 -11v-250q29 -17 70 -17z" />
<glyph unicode="q" horiz-adv-x="555" d="M39 307q0 106 65 166.5t172 60.5q113 0 211 -37q14 -6 14 -20v-649q0 -18 -18 -18h-118q-17 0 -17 18v176q-42 -17 -92 -17q-97 0 -157 60t-60 161v99zM195 205q0 -85 83 -85q41 0 70 17v250q-30 11 -69 11q-84 0 -84 -88v-105z" />
<glyph unicode="r" horiz-adv-x="378" d="M190 0h-118q-18 0 -18 18v454q0 14 13 21q84 41 184 41q37 0 97 -10q16 -3 16 -19v-92q0 -19 -19 -16q-27 4 -62 4q-45 0 -76 -13v-370q0 -18 -17 -18z" />
<glyph unicode="s" horiz-adv-x="496" d="M469 162q0 -87 -58.5 -131t-167.5 -44q-115 0 -208 65q-14 10 -5 25l47 80q10 16 24 6q66 -45 143 -45q32 0 51.5 10.5t19.5 29.5q0 18 -18.5 27t-53.5 15q-198 33 -198 169q0 81 58 123t159 42q89 0 177 -46q16 -8 6 -24l-46 -78q-9 -15 -24 -7q-55 29 -116 29 q-64 0 -64 -37q0 -20 18.5 -29t68.5 -17q187 -32 187 -163z" />
<glyph unicode="t" horiz-adv-x="346" d="M205 198q0 -74 67 -74q10 0 32 2q19 3 19 -15v-98q0 -17 -14 -20q-28 -5 -63 -5q-90 0 -142 48.5t-52 142.5v449q0 17 18 17h104q17 0 18 -16l12 -120h90q18 0 18 -17v-96q0 -17 -18 -17h-89v-181z" />
<glyph unicode="u" horiz-adv-x="559" d="M369 520h118q18 0 18 -17v-455q0 -15 -13 -21q-96 -40 -206 -40q-114 0 -175 59.5t-61 172.5v284q0 17 18 17h118q18 0 18 -17v-285q0 -53 20.5 -74.5t61.5 -21.5t66 10v371q0 17 17 17z" />
<glyph unicode="v" horiz-adv-x="534" d="M335 0h-140q-14 0 -19 14l-168 486q-8 20 14 20h126q16 0 19 -14l61 -219q14 -44 36 -131h3q14 57 36 131l62 219q5 14 20 14h126q21 0 14 -20l-170 -486q-6 -14 -20 -14z" />
<glyph unicode="w" horiz-adv-x="775" d="M294 0h-130q-16 0 -19 15l-134 486q-5 19 15 19h120q15 0 18 -15l36 -165q16 -87 31 -181h3q15 88 35 175l38 164q3 15 19 15h124q15 0 18 -15l39 -164q12 -53 35 -175h3q15 94 31 181l35 165q3 15 19 15h120q9 0 13 -5.5t1 -13.5l-133 -486q-5 -15 -19 -15h-130 q-17 0 -20 16l-44 181q-11 45 -29 130h-3q-15 -73 -28 -130l-45 -181q-3 -16 -19 -16z" />
<glyph unicode="x" horiz-adv-x="518" d="M358 262l145 -241q5 -9 1.5 -15t-13.5 -6h-139q-14 0 -20 13l-73 143l-72 -143q-7 -13 -21 -13h-139q-10 0 -13.5 6t1.5 15l145 241l-137 237q-5 9 -1.5 15t13.5 6h135q15 0 21 -13l68 -148l68 148q6 13 21 13h135q10 0 13.5 -6t-1.5 -15z" />
<glyph unicode="y" horiz-adv-x="560" d="M351 159v344q0 17 18 17h118q17 0 17 -17v-453q0 -131 -57 -191.5t-180 -60.5t-199 55q-15 9 -5 24l53 81q9 13 23 6q57 -34 121 -34q48 0 71.5 22t22.5 75q-49 -14 -91 -14q-93 0 -153 57.5t-60 156.5v276q0 17 18 17h118q17 0 17 -17v-273q0 -85 83 -85q39 0 65 14z " />
<glyph unicode="z" horiz-adv-x="496" d="M445 0h-398q-17 0 -17 18v63q0 12 7 22l212 283h-187q-17 0 -17 17v100q0 17 17 17h377q18 0 18 -17v-60q0 -12 -7 -22l-209 -286h204q18 0 18 -18v-99q0 -18 -18 -18z" />
<glyph unicode="{" horiz-adv-x="345" d="M297 -116h-52q-74 0 -109 36.5t-35 116.5v161q0 90 -56 101q-17 3 -17 18v78q0 15 17 18q56 11 56 101v161q0 80 35 116.5t109 36.5h52q18 0 18 -17v-91q0 -18 -18 -18h-22q-39 0 -39 -45v-162q0 -48 -23.5 -87t-58.5 -52q35 -13 58.5 -52t23.5 -87v-162q0 -45 39 -45h22 q18 0 18 -18v-91q0 -17 -18 -17z" />
<glyph unicode="|" horiz-adv-x="275" d="M191 -139h-106q-18 0 -18 18v964q0 18 18 18h106q17 0 17 -18v-964q0 -18 -17 -18z" />
<glyph unicode="}" horiz-adv-x="345" d="M100 -116h-52q-18 0 -18 17v91q0 18 18 18h22q39 0 39 45v162q0 48 23.5 87t58.5 52q-35 13 -58.5 52t-23.5 87v162q0 45 -39 45h-22q-18 0 -18 18v91q0 17 18 17h52q74 0 109 -36.5t35 -116.5v-161q0 -90 56 -101q17 -3 17 -18v-78q0 -15 -17 -18q-56 -11 -56 -101v-161 q0 -80 -35 -116.5t-109 -36.5z" />
<glyph unicode="~" d="M560 308q-50 -71 -139 -71q-40 0 -106 27q-52 22 -78 22q-43 0 -70 -24q-13 -12 -24 -2l-71 63q-11 10 -4 25q50 72 143 72q40 0 106 -27q51 -22 80 -22q39 0 66 24q14 12 25 2l70 -63q12 -12 2 -26z" />
<glyph unicode="&#xa1;" horiz-adv-x="267" d="M85 304h98q17 0 17 -18l10 -284v-177q0 -18 -17 -18h-118q-18 0 -18 18v177l10 284q0 18 18 18zM43 445q0 38 26 63.5t65 25.5t64.5 -25.5t25.5 -63.5q0 -39 -25 -64t-65 -25t-65.5 25t-25.5 64z" />
<glyph unicode="&#xa2;" horiz-adv-x="498" d="M410 146l54 -80q10 -14 -4 -25q-63 -45 -141 -51v-72q0 -18 -18 -18h-78q-17 0 -17 18v78q-76 19 -117.5 73.5t-41.5 135.5v113q0 80 41.5 134t117.5 73v72q0 18 17 18h78q18 0 18 -18v-66q65 -7 128 -44q14 -10 5 -25l-53 -80q-8 -14 -25 -6q-43 23 -84 23t-64.5 -21.5 t-23.5 -59.5v-113q0 -41 23.5 -62t63.5 -21q50 0 96 29q16 10 25 -5z" />
<glyph unicode="&#xa3;" horiz-adv-x="567" d="M514 0h-453q-17 0 -17 18v93q0 15 17 18q59 12 57 101v76h-57q-17 0 -17 18v92q0 18 17 18h57v84q0 98 57.5 154t159.5 56q111 0 185 -54q12 -11 3 -25l-53 -74q-8 -13 -24 -5q-47 29 -104 29q-85 0 -85 -86v-79h147q18 0 18 -18v-92q0 -18 -18 -18h-148v-76 q0 -72 -41 -103h299q17 0 17 -17v-92q0 -18 -17 -18z" />
<glyph unicode="&#xa4;" horiz-adv-x="639" d="M442 137q-56 -32 -127 -32q-69 0 -122 29l-57 -57q-12 -14 -24 0l-57 58q-11 12 0 25l54 53q-34 57 -34 133q0 71 32 126l-52 52q-13 12 0 25l57 57q12 12 24 0l53 -53q55 33 126 33q76 0 132 -35l55 55q12 12 25 0l57 -57q12 -12 0 -24l-58 -58q30 -54 30 -121 q0 -69 -32 -128l60 -60q12 -12 0 -24l-58 -57q-12 -13 -25 0zM199 346q0 -52 32.5 -84.5t83.5 -32.5t84 32.5t33 84.5q-1 51 -33.5 83.5t-83.5 32.5t-83.5 -32.5t-32.5 -83.5z" />
<glyph unicode="&#xa5;" horiz-adv-x="632" d="M458 715h133q10 0 13.5 -6t-0.5 -15l-170 -348h75q18 0 18 -18v-70q0 -17 -18 -17h-117v-48h117q18 0 18 -18v-69q0 -18 -18 -18h-117v-70q0 -18 -18 -18h-118q-17 0 -17 18v70h-121q-17 0 -17 18v69q0 18 17 18h121v48h-121q-17 0 -17 17v70q0 18 17 18h78l-169 348 q-5 9 -1 15t14 6h132q15 0 20 -14l123 -294l122 294q6 14 21 14z" />
<glyph unicode="&#xa6;" horiz-adv-x="279" d="M193 414h-107q-18 0 -18 18v411q0 18 18 18h107q18 0 18 -18v-411q0 -18 -18 -18zM193 -139h-107q-18 0 -18 18v412q0 18 18 18h107q18 0 18 -18v-412q0 -18 -18 -18z" />
<glyph unicode="&#xa7;" horiz-adv-x="521" d="M475 24q1 -92 -59 -146t-156 -54q-58 0 -112.5 25.5t-91.5 67.5q-10 12 -1 24l54 72q12 15 25 3q59 -56 125 -56q34 0 52 15.5t18 38.5q0 24 -30 42.5t-72.5 34t-85.5 36t-73 61t-30 96.5q0 86 82 133q-59 54 -59 137t59.5 128.5t148.5 45.5q90 0 165 -61q13 -11 3 -24 l-54 -68q-10 -15 -25 -3q-39 28 -86 28q-67 0 -67 -52q0 -25 20.5 -42.5t51.5 -27t67 -25t67 -33.5t51.5 -55.5t20.5 -89.5q0 -81 -67 -131q59 -44 59 -120zM176 295q0 -29 30 -49.5t100 -44.5q37 23 37 63q0 32 -28 52t-92 40q-47 -19 -47 -61z" />
<glyph unicode="&#xa8;" horiz-adv-x="294" d="M148 673q0 -35 -20 -54.5t-53 -19.5t-54 19.5t-21 53.5q0 35 21 55t54 20t53 -19.5t20 -54.5zM368 673q0 -35 -20 -54.5t-53 -19.5q-34 0 -54.5 19.5t-20.5 54.5t20.5 54.5t54.5 19.5q33 0 53 -19.5t20 -54.5z" />
<glyph unicode="&#xa9;" horiz-adv-x="804" d="M762 358q0 -171 -103 -271t-256 -100q-155 0 -258 99.5t-103 271.5q0 170 103 270t258 100q153 0 256 -100t103 -270zM116 358q0 -142 81 -220.5t206 -78.5q123 0 204 78.5t81 220.5q0 141 -80.5 219t-204.5 78q-125 0 -206 -77.5t-81 -219.5zM545 202q-50 -47 -136 -47 q-72 0 -121.5 40t-49.5 118v89q0 78 49.5 118t120.5 40q73 0 130 -44q12 -10 3 -24l-40 -55q-10 -14 -25 -5q-30 23 -65 23q-24 0 -40.5 -14t-16.5 -41v-83q0 -28 16.5 -42t41.5 -14q41 0 70 22q15 12 25 -2l39 -57q10 -13 -1 -22z" />
<glyph unicode="&#xab;" horiz-adv-x="571" d="M300 71h-114q-13 0 -21 11l-132 197q-7 12 0 24l132 197q8 11 21 11h114q23 0 11 -21l-136 -199l136 -199q12 -21 -11 -21zM524 71h-114q-13 0 -21 11l-132 197q-7 12 0 24l132 197q8 11 21 11h114q23 0 11 -21l-136 -199l136 -199q12 -21 -11 -21z" />
<glyph unicode="&#xac;" d="M532 127h-101q-18 0 -18 18v133h-330q-17 0 -17 17v107q0 17 17 17h449q18 0 18 -17v-257q0 -18 -18 -18z" />
<glyph unicode="&#xad;" horiz-adv-x="402" d="M328 231h-254q-18 0 -18 18v100q0 18 18 18h254q18 0 18 -18v-100q0 -18 -18 -18z" />
<glyph unicode="&#xae;" horiz-adv-x="494" d="M455 520q0 -96 -59.5 -152t-148.5 -56t-148.5 56t-59.5 152q0 95 59.5 151.5t148.5 56.5t148.5 -56.5t59.5 -151.5zM86 520q0 -76 46 -119t116 -43q69 0 114.5 43t45.5 119q0 77 -45.5 119.5t-114.5 42.5q-71 0 -116.5 -42.5t-45.5 -119.5zM211 420h-29q-8 0 -8 9v187 q0 8 8 8h75q35 0 56 -16.5t21 -49.5q0 -52 -47 -62l49 -66q8 -10 -4 -10h-35q-6 0 -11 7l-46 64h-22v-62q0 -9 -7 -9zM218 584v-54h37q34 0 34 28q0 26 -34 26h-37z" />
<glyph unicode="&#xaf;" horiz-adv-x="305" d="M0 628v71q0 17 18 17h274q18 0 18 -17v-71q0 -17 -18 -17h-274q-18 0 -18 17z" />
<glyph unicode="&#xb0;" horiz-adv-x="391" d="M359 567q0 -74 -46 -118t-117 -44q-72 0 -117.5 43.5t-45.5 118.5q0 74 45.5 117t117.5 43t117.5 -43t45.5 -117zM129 566q0 -33 19 -50t48 -17t48 17t19 50q0 32 -19 49.5t-48 17.5t-48 -17.5t-19 -49.5z" />
<glyph unicode="&#xb1;" d="M368 208h-106q-17 0 -17 18v136h-155q-17 0 -17 17v103q0 18 17 18h155v136q0 18 17 18h106q17 0 17 -18v-136h154q18 0 18 -18v-103q0 -17 -18 -17h-154v-136q0 -18 -17 -18zM539 23h-449q-17 0 -17 17v96q0 18 17 18h449q18 0 18 -18v-96q0 -17 -18 -17z" />
<glyph unicode="&#xb2;" horiz-adv-x="335" d="M292 410h-253q-18 0 -18 18v53q0 13 10 22l112 99q57 52 57 78q0 29 -37 29t-71 -29q-15 -10 -25 3l-34 47q-9 14 3 24q58 49 138 49q59 0 95 -31t36 -81q0 -36 -16.5 -66t-58.5 -71q-30 -30 -58 -48h120q18 0 18 -18v-60q0 -18 -18 -18z" />
<glyph unicode="&#xb3;" horiz-adv-x="343" d="M319 535q0 -60 -41.5 -95t-111.5 -35q-83 0 -146 51q-13 11 -2 25l34 43q10 14 25 2q30 -25 82 -25q57 0 57 48q0 42 -60 42q-17 0 -26 -2q-17 -2 -22 12l-8 20q-6 13 5 24l31 34q12 14 36 32h-123q-17 0 -17 17v52q0 18 17 18h236q17 0 17 -18v-35q0 -14 -9 -22l-80 -76 q8 0 17 -2q40 -4 64.5 -33.5t24.5 -76.5z" />
<glyph unicode="&#xb4;" horiz-adv-x="285" d="M111 595h-87q-10 0 -13.5 6.5t2.5 14.5l82 130q7 12 21 12h113q11 0 13.5 -6.5t-4.5 -15.5l-106 -131q-7 -10 -21 -10z" />
<glyph unicode="&#xb6;" horiz-adv-x="749" d="M404 -139h-109q-17 0 -17 18v333q-112 0 -182 73t-70 183q0 106 73 176.5t195 70.5h362q17 0 17 -18v-818q0 -18 -17 -18h-109q-18 0 -18 18v695h-107v-695q0 -18 -18 -18z" />
<glyph unicode="&#xb7;" horiz-adv-x="272" d="M228 316q0 -37 -25.5 -62t-64.5 -25t-64 25t-25 62q0 39 24.5 63.5t64.5 24.5t65 -24.5t25 -63.5z" />
<glyph unicode="&#xb8;" horiz-adv-x="186" d="M210 -122q0 -43 -36 -65.5t-99 -22.5q-32 0 -55 8q-14 3 -14 20v31q0 17 19 14q20 -4 30 -4q51 0 51 28q0 24 -42 28q-15 0 -21 12q-2 6 3 16l20 48q5 14 20 14h37q10 0 14 -6t0 -15l-13 -29q86 -6 86 -77z" />
<glyph unicode="&#xb9;" horiz-adv-x="248" d="M188 410h-68q-18 0 -18 18v251l-35 -24q-15 -10 -24 5l-34 48q-10 15 4 24l87 59q8 7 22 7h66q17 0 17 -18v-352q0 -18 -17 -18z" />
<glyph unicode="&#xbb;" horiz-adv-x="571" d="M161 71h-114q-23 0 -11 21l136 199l-136 199q-12 21 11 21h114q13 0 21 -11l132 -197q8 -12 0 -24l-132 -197q-8 -11 -21 -11zM385 71h-114q-23 0 -11 21l136 199l-136 199q-12 21 11 21h114q13 0 21 -11l132 -197q8 -12 0 -24l-132 -197q-8 -11 -21 -11z" />
<glyph unicode="&#xbc;" horiz-adv-x="886" d="M206 327h-68q-18 0 -18 18v251l-35 -24q-15 -10 -24 5l-34 48q-10 15 4 24l87 59q8 7 22 7h66q17 0 17 -18v-352q0 -18 -17 -18zM699 694l-456 -683q-7 -11 -21 -11h-78q-10 0 -13 6.5t2 14.5l455 683q7 11 21 11h78q10 0 13.5 -6.5t-1.5 -14.5zM798 0h-68q-18 0 -18 18 v47h-169q-17 0 -17 18v51q0 12 5 21l116 221q7 12 20 12h71q10 0 13.5 -6t-0.5 -15l-109 -207h70l5 54q1 16 18 16h63q18 0 18 -17v-54h23q17 0 17 -18v-58q0 -18 -17 -18h-23v-47q0 -18 -18 -18z" />
<glyph unicode="&#xbd;" horiz-adv-x="874" d="M207 327h-68q-18 0 -18 18v251l-35 -24q-15 -10 -24 5l-34 48q-10 15 4 24l87 59q8 7 22 7h66q17 0 17 -18v-352q0 -18 -17 -18zM676 694l-456 -683q-7 -11 -21 -11h-78q-10 0 -13 6.5t2 14.5l455 683q7 11 21 11h78q10 0 13.5 -6.5t-1.5 -14.5zM817 0h-253q-18 0 -18 18 v53q0 13 10 22l112 99q57 52 57 78q0 29 -37 29t-71 -29q-15 -10 -25 3l-34 47q-9 14 3 24q58 49 138 49q59 0 95 -31t36 -81q0 -36 -16.5 -66t-58.5 -71q-30 -30 -58 -48h120q18 0 18 -18v-60q0 -18 -18 -18z" />
<glyph unicode="&#xbe;" horiz-adv-x="906" d="M335 452q0 -60 -41.5 -95t-111.5 -35q-83 0 -146 51q-13 11 -2 25l34 43q10 14 25 2q30 -25 82 -25q57 0 57 48q0 42 -60 42q-17 0 -26 -2q-17 -2 -22 12l-8 20q-6 13 5 24l31 34q12 14 36 32h-123q-17 0 -17 17v52q0 18 17 18h236q17 0 17 -18v-35q0 -14 -9 -22l-80 -76 q8 0 17 -2q40 -4 64.5 -33.5t24.5 -76.5zM739 694l-456 -683q-7 -11 -21 -11h-78q-10 0 -13 6.5t2 14.5l455 683q7 11 21 11h78q10 0 13.5 -6.5t-1.5 -14.5zM821 0h-68q-18 0 -18 18v47h-169q-17 0 -17 18v51q0 12 5 21l116 221q8 12 20 12h71q10 0 13.5 -6t-0.5 -15 l-109 -207h70l5 54q1 16 18 16h63q18 0 18 -17v-54h23q17 0 17 -18v-58q0 -18 -17 -18h-23v-47q0 -18 -18 -18z" />
<glyph unicode="&#xbf;" horiz-adv-x="507" d="M220 310h111q18 0 18 -17v-39q0 -42 -17.5 -72.5t-42 -48.5t-49 -33.5t-42 -37.5t-17.5 -51q0 -35 22.5 -57.5t70.5 -22.5q72 0 128 49q14 13 24 -2l56 -84q9 -12 -2 -24q-34 -31 -91.5 -52.5t-122.5 -21.5q-100 0 -168 53.5t-68 157.5q0 48 17.5 82.5t43 53.5t51 35.5 t43 40t17.5 56.5v21q0 14 18 14zM185 446q0 38 25 63t64 25t64 -25t25 -63t-24.5 -62.5t-64.5 -24.5q-39 0 -64 24.5t-25 62.5z" />
<glyph unicode="&#xc0;" horiz-adv-x="664" d="M153 0h-134q-21 0 -14 20l232 681q6 14 19 14h152q14 0 19 -14l232 -681q8 -20 -14 -20h-133q-16 0 -21 15l-37 122h-243l-38 -122q-4 -15 -20 -15zM330 540q-5 -16 -33.5 -114.5t-44.5 -149.5h161q-3 10 -79 264h-4zM279 772l-126 132q-7 8 -4 15t14 7h123q14 0 21 -11 l101 -131q7 -9 3.5 -15t-14.5 -6h-97q-13 0 -21 9z" />
<glyph unicode="&#xc1;" horiz-adv-x="664" d="M153 0h-134q-21 0 -14 20l232 681q6 14 19 14h152q14 0 19 -14l232 -681q8 -20 -14 -20h-133q-16 0 -21 15l-37 122h-243l-38 -122q-4 -15 -20 -15zM330 540q-5 -16 -33.5 -114.5t-44.5 -149.5h161q-3 10 -79 264h-4zM503 904l-126 -132q-8 -9 -21 -9h-97q-11 0 -14.5 6 t3.5 15l101 131q7 11 21 11h123q11 0 14 -7t-4 -15z" />
<glyph unicode="&#xc2;" horiz-adv-x="664" d="M153 0h-134q-21 0 -14 20l232 681q6 14 19 14h152q14 0 19 -14l232 -681q8 -20 -14 -20h-133q-16 0 -21 15l-37 122h-243l-38 -122q-4 -15 -20 -15zM330 540q-5 -16 -33.5 -114.5t-44.5 -149.5h161q-3 10 -79 264h-4zM260 760h-97q-11 0 -14 6.5t5 15.5l115 131 q9 10 22 10h82q13 0 22 -10l114 -131q8 -9 5 -15.5t-14 -6.5h-97q-14 0 -21 10l-50 59l-51 -59q-7 -10 -21 -10z" />
<glyph unicode="&#xc3;" horiz-adv-x="664" d="M153 0h-134q-21 0 -14 20l232 681q6 14 19 14h152q14 0 19 -14l232 -681q8 -20 -14 -20h-133q-16 0 -21 15l-37 122h-243l-38 -122q-4 -15 -20 -15zM330 540q-5 -16 -33.5 -114.5t-44.5 -149.5h161q-3 10 -79 264h-4zM517 857q-13 -38 -41.5 -69t-66.5 -31q-25 0 -79 28 q-44 22 -55 22q-21 0 -38 -31q-10 -15 -24 -7l-62 32q-14 9 -8 23q14 37 41.5 66.5t64.5 29.5q30 0 80 -27q46 -23 59 -23q16 0 34 32q9 15 23 7l62 -33q14 -9 10 -19z" />
<glyph unicode="&#xc4;" horiz-adv-x="664" d="M153 0h-134q-21 0 -14 20l232 681q6 14 19 14h152q14 0 19 -14l232 -681q8 -20 -14 -20h-133q-16 0 -21 15l-37 122h-243l-38 -122q-4 -15 -20 -15zM330 540q-5 -16 -33.5 -114.5t-44.5 -149.5h161q-3 10 -79 264h-4zM299 842q0 -33 -22 -54.5t-55 -21.5t-54.5 21.5 t-21.5 54.5t21.5 54.5t54.5 21.5t55 -21.5t22 -54.5zM519 842q0 -33 -22 -54.5t-56 -21.5t-55 21.5t-21 54.5t21 54.5t55 21.5t56 -21.5t22 -54.5z" />
<glyph unicode="&#xc5;" horiz-adv-x="664" d="M153 0h-134q-21 0 -14 20l232 681q6 14 19 14h152q14 0 19 -14l232 -681q8 -20 -14 -20h-133q-16 0 -21 15l-37 122h-243l-38 -122q-4 -15 -20 -15zM330 540q-5 -16 -33.5 -114.5t-44.5 -149.5h161q-3 10 -79 264h-4zM473 876q0 -57 -38.5 -91t-101.5 -34t-102 34.5 t-39 90.5q0 55 39 89.5t102 34.5q62 0 101 -34.5t39 -89.5zM283 876q0 -21 13.5 -33.5t36.5 -12.5q22 0 35.5 12.5t13.5 33.5q0 20 -13 32t-36 12t-36.5 -12t-13.5 -32z" />
<glyph unicode="&#xc6;" horiz-adv-x="905" d="M561 288v-142h284q18 0 18 -18v-110q0 -18 -18 -18h-426q-17 0 -17 18v122h-177l-56 -127q-6 -13 -20 -13h-139q-10 0 -13.5 6t0.5 15l319 681q6 13 20 13h494q17 0 17 -18v-110q0 -17 -17 -17h-269v-139h236q17 0 17 -17v-108q0 -18 -17 -18h-236zM398 548l-115 -269 h119v269h-4z" />
<glyph unicode="&#xc7;" horiz-adv-x="594" d="M440 -128q0 -44 -37 -67.5t-102 -23.5q-28 0 -55 8q-14 4 -14 20v33q0 17 19 14q20 -4 30 -4q50 0 50 28q2 24 -43 28q-15 0 -21 12q-2 6 3 16l21 53q-112 13 -175.5 81t-63.5 183v209q0 128 78.5 197t210.5 69q123 0 214 -64q15 -9 5 -23l-63 -96q-10 -14 -25 -5 q-56 36 -128 36q-62 0 -95.5 -32.5t-33.5 -87.5v-196q0 -58 34 -89.5t96 -31.5q77 0 139 42q15 11 24 -4l64 -96q10 -14 -1 -22q-88 -66 -203 -72l-16 -39q42 -3 65 -22.5t23 -53.5z" />
<glyph unicode="&#xc8;" horiz-adv-x="592" d="M235 291v-146h297q18 0 18 -17v-110q0 -18 -18 -18h-440q-18 0 -18 18v679q0 18 18 18h424q18 0 18 -18v-110q0 -17 -18 -17h-281v-137h248q18 0 18 -17v-108q0 -17 -18 -17h-248zM260 772l-126 132q-8 8 -4.5 15t14.5 7h123q14 0 21 -11l101 -131q7 -9 3.5 -15t-14.5 -6 h-97q-13 0 -21 9z" />
<glyph unicode="&#xc9;" horiz-adv-x="592" d="M235 291v-146h297q18 0 18 -17v-110q0 -18 -18 -18h-440q-18 0 -18 18v679q0 18 18 18h424q18 0 18 -18v-110q0 -17 -18 -17h-281v-137h248q18 0 18 -17v-108q0 -17 -18 -17h-248zM478 904l-126 -132q-8 -9 -21 -9h-97q-11 0 -14.5 6t3.5 15l101 131q7 11 21 11h123 q11 0 14.5 -7t-4.5 -15z" />
<glyph unicode="&#xca;" horiz-adv-x="592" d="M235 291v-146h297q18 0 18 -17v-110q0 -18 -18 -18h-440q-18 0 -18 18v679q0 18 18 18h424q18 0 18 -18v-110q0 -17 -18 -17h-281v-137h248q18 0 18 -17v-108q0 -17 -18 -17h-248zM236 763h-97q-11 0 -14 6.5t5 15.5l115 131q9 10 22 10h82q13 0 22 -10l114 -131 q8 -9 5 -15.5t-14 -6.5h-97q-14 0 -21 10l-50 59l-51 -59q-7 -10 -21 -10z" />
<glyph unicode="&#xcb;" horiz-adv-x="592" d="M235 291v-146h297q18 0 18 -17v-110q0 -18 -18 -18h-440q-18 0 -18 18v679q0 18 18 18h424q18 0 18 -18v-110q0 -17 -18 -17h-281v-137h248q18 0 18 -17v-108q0 -17 -18 -17h-248zM274 845q0 -33 -22 -54.5t-55 -21.5t-54.5 21.5t-21.5 54.5t21.5 54.5t54.5 21.5 t55 -21.5t22 -54.5zM494 845q0 -33 -22 -54.5t-56 -21.5t-55 21.5t-21 54.5t21 54.5t55 21.5t56 -21.5t22 -54.5z" />
<glyph unicode="&#xcc;" horiz-adv-x="309" d="M235 697v-679q0 -18 -18 -18h-125q-18 0 -18 18v679q0 18 18 18h125q18 0 18 -18zM98 782l-126 132q-8 8 -4.5 15t14.5 7h123q14 0 21 -11l101 -131q7 -9 3.5 -15t-14.5 -6h-97q-13 0 -21 9z" />
<glyph unicode="&#xcd;" horiz-adv-x="309" d="M235 697v-679q0 -18 -18 -18h-125q-18 0 -18 18v679q0 18 18 18h125q18 0 18 -18zM326 914l-126 -132q-8 -9 -21 -9h-97q-11 0 -14.5 6t3.5 15l101 131q7 11 21 11h123q11 0 14.5 -7t-4.5 -15z" />
<glyph unicode="&#xce;" horiz-adv-x="309" d="M97 763h-97q-11 0 -14 6.5t4 15.5l108 131q7 10 21 10h72q13 0 22 -10l107 -131q7 -9 4 -15.5t-14 -6.5h-97q-14 0 -21 11l-37 54l-37 -54q-7 -11 -21 -11zM235 697v-679q0 -18 -18 -18h-125q-18 0 -18 18v679q0 18 18 18h125q18 0 18 -18z" />
<glyph unicode="&#xcf;" horiz-adv-x="309" d="M217 0h-125q-18 0 -18 18v679q0 18 18 18h125q18 0 18 -18v-679q0 -18 -18 -18zM135 838q0 -32 -21 -53t-53 -21t-53 21t-21 53t21 52.5t53 20.5t53 -20.5t21 -52.5zM329 838q0 -32 -21 -53t-54 -21t-53.5 21t-20.5 53t20.5 52.5t53.5 20.5t54 -20.5t21 -52.5z" />
<glyph unicode="&#xd0;" horiz-adv-x="688" d="M105 715h248q129 0 206 -66t77 -213v-159q0 -147 -76.5 -212t-206.5 -65h-248q-18 0 -18 18v299h-60q-18 0 -18 17v61q0 17 18 17h60v285q0 18 18 18zM355 151q116 0 116 119v174q0 121 -116 121h-107v-153h106q17 0 17 -17v-61q0 -17 -17 -17h-106v-166h107z" />
<glyph unicode="&#xd1;" horiz-adv-x="711" d="M216 0h-124q-18 0 -18 18v679q0 18 18 18h133q14 0 20 -12l134 -239q79 -151 107 -214l3 1q-11 141 -11 267v179q0 18 18 18h124q17 0 17 -18v-679q0 -18 -17 -18h-133q-13 0 -21 12l-130 216q-61 103 -116 233l-3 -1q16 -162 16 -285v-157q0 -18 -17 -18zM544 867 q-13 -38 -41.5 -69t-66.5 -31q-25 0 -79 28q-44 22 -55 22q-21 0 -38 -31q-10 -15 -24 -7l-62 32q-14 9 -8 23q14 37 41.5 66.5t64.5 29.5q30 0 80 -27q46 -23 59 -23q16 0 34 32q9 15 23 7l62 -33q14 -9 10 -19z" />
<glyph unicode="&#xd2;" horiz-adv-x="685" d="M634 272q0 -134 -77 -209t-215 -75q-137 0 -214 75t-77 209v173q0 133 77 208t214 75q138 0 215 -74.5t77 -208.5v-173zM215 275q0 -135 127 -135t127 135v167q0 134 -127 134t-127 -134v-167zM285 782l-126 132q-7 8 -4 15t14 7h123q14 0 21 -11l101 -131q7 -9 3.5 -15 t-14.5 -6h-97q-13 0 -21 9z" />
<glyph unicode="&#xd3;" horiz-adv-x="685" d="M634 272q0 -134 -77 -209t-215 -75q-137 0 -214 75t-77 209v173q0 133 77 208t214 75q138 0 215 -74.5t77 -208.5v-173zM215 275q0 -135 127 -135t127 135v167q0 134 -127 134t-127 -134v-167zM513 914l-126 -132q-8 -9 -21 -9h-97q-11 0 -14.5 6t3.5 15l101 131 q7 11 21 11h123q11 0 14 -7t-4 -15z" />
<glyph unicode="&#xd4;" horiz-adv-x="685" d="M634 272q0 -134 -77 -209t-215 -75q-137 0 -214 75t-77 209v173q0 133 77 208t214 75q138 0 215 -74.5t77 -208.5v-173zM215 275q0 -135 127 -135t127 135v167q0 134 -127 134t-127 -134v-167zM270 771h-97q-11 0 -14 6.5t5 15.5l115 131q9 10 22 10h82q13 0 22 -10 l114 -131q8 -9 5 -15.5t-14 -6.5h-97q-14 0 -21 10l-50 59l-51 -59q-7 -10 -21 -10z" />
<glyph unicode="&#xd5;" horiz-adv-x="685" d="M634 272q0 -134 -77 -209t-215 -75q-137 0 -214 75t-77 209v173q0 133 77 208t214 75q138 0 215 -74.5t77 -208.5v-173zM215 275q0 -135 127 -135t127 135v167q0 134 -127 134t-127 -134v-167zM530 867q-13 -38 -41.5 -69t-66.5 -31q-25 0 -79 28q-44 22 -55 22 q-21 0 -38 -31q-10 -15 -24 -7l-62 32q-14 9 -8 23q14 37 41.5 66.5t64.5 29.5q30 0 80 -27q46 -23 59 -23q16 0 34 32q9 15 23 7l62 -33q14 -9 10 -19z" />
<glyph unicode="&#xd6;" horiz-adv-x="685" d="M634 272q0 -134 -77 -209t-215 -75q-137 0 -214 75t-77 209v173q0 133 77 208t214 75q138 0 215 -74.5t77 -208.5v-173zM215 275q0 -135 127 -135t127 135v167q0 134 -127 134t-127 -134v-167zM309 840q0 -33 -22 -54.5t-55 -21.5t-54.5 21.5t-21.5 54.5t21.5 54.5 t54.5 21.5t55 -21.5t22 -54.5zM529 840q0 -33 -22 -54.5t-56 -21.5t-55 21.5t-21 54.5t21 54.5t55 21.5t56 -21.5t22 -54.5z" />
<glyph unicode="&#xd7;" d="M315 220l-138 -138q-13 -12 -25 0l-78 77q-11 13 0 25l138 138l-138 138q-12 13 0 25l78 78q12 12 25 0l138 -138l138 138q13 11 25 0l77 -78q13 -13 0 -25l-138 -138l138 -138q13 -12 0 -25l-77 -77q-13 -13 -25 0z" />
<glyph unicode="&#xd8;" horiz-adv-x="685" d="M617 752l-55 -104q72 -74 72 -203v-173q0 -134 -77 -209t-215 -75q-64 0 -118 17l-27 -52q-5 -12 -21 -12h-87q-10 0 -13.5 6t0.5 15l53 100q-78 73 -78 210v173q0 133 77 208t214 75q72 0 127 -21l28 54q6 13 20 13h87q11 0 14.5 -6.5t-1.5 -15.5zM215 275 q0 -135 127 -135q128 0 128 135v167q0 134 -128 134q-127 0 -127 -134v-167z" />
<glyph unicode="&#xd9;" horiz-adv-x="693" d="M625 263q0 -131 -73.5 -203t-205.5 -72t-205 72t-73 203v434q0 18 18 18h127q18 0 18 -18v-434q0 -60 29.5 -91.5t85.5 -31.5t86.5 31.5t30.5 91.5v434q0 18 17 18h128q17 0 17 -18v-434zM290 772l-126 132q-8 8 -4.5 15t14.5 7h123q14 0 21 -11l101 -131q7 -9 3.5 -15 t-14.5 -6h-97q-13 0 -21 9z" />
<glyph unicode="&#xda;" horiz-adv-x="693" d="M625 263q0 -131 -73.5 -203t-205.5 -72t-205 72t-73 203v434q0 18 18 18h127q18 0 18 -18v-434q0 -60 29.5 -91.5t85.5 -31.5t86.5 31.5t30.5 91.5v434q0 18 17 18h128q17 0 17 -18v-434zM518 904l-126 -132q-8 -9 -21 -9h-97q-11 0 -14.5 6t3.5 15l101 131q7 11 21 11 h123q11 0 14.5 -7t-4.5 -15z" />
<glyph unicode="&#xdb;" horiz-adv-x="693" d="M625 263q0 -131 -73.5 -203t-205.5 -72t-205 72t-73 203v434q0 18 18 18h127q18 0 18 -18v-434q0 -60 29.5 -91.5t85.5 -31.5t86.5 31.5t30.5 91.5v434q0 18 17 18h128q17 0 17 -18v-434zM275 766h-97q-11 0 -14 6.5t5 15.5l115 131q9 10 22 10h82q13 0 22 -10l114 -131 q8 -9 5 -15.5t-14 -6.5h-97q-14 0 -21 10l-50 59l-51 -59q-7 -10 -21 -10z" />
<glyph unicode="&#xdc;" horiz-adv-x="693" d="M625 263q0 -131 -73.5 -203t-205.5 -72t-205 72t-73 203v434q0 18 18 18h127q18 0 18 -18v-434q0 -60 29.5 -91.5t85.5 -31.5t86.5 31.5t30.5 91.5v434q0 18 17 18h128q17 0 17 -18v-434zM314 847q0 -33 -22 -54.5t-55 -21.5t-54.5 21.5t-21.5 54.5t21.5 54.5t54.5 21.5 t55 -21.5t22 -54.5zM534 847q0 -33 -22 -54.5t-56 -21.5t-55 21.5t-21 54.5t21 54.5t55 21.5t56 -21.5t22 -54.5z" />
<glyph unicode="&#xdd;" horiz-adv-x="613" d="M369 0h-127q-17 0 -17 18v237l-222 439q-5 9 -1 15t14 6h140q14 0 20 -14l130 -293l129 293q5 14 20 14h140q10 0 13.5 -6t-0.5 -15l-222 -440v-236q0 -18 -17 -18zM477 904l-126 -132q-8 -9 -21 -9h-97q-11 0 -14.5 6t3.5 15l101 131q7 11 21 11h123q11 0 14 -7t-4 -15z " />
<glyph unicode="&#xde;" horiz-adv-x="653" d="M218 0h-126q-18 0 -18 18v679q0 18 18 18h126q18 0 18 -18v-76h122q118 0 187.5 -68t69.5 -184t-69.5 -185t-187.5 -69h-122v-97q0 -18 -18 -18zM236 471v-207h104q57 0 83 26t26 79q0 102 -109 102h-104z" />
<glyph unicode="&#xdf;" horiz-adv-x="589" d="M527 516q0 -40 -21 -76.5t-56 -54.5q50 -22 78 -67.5t28 -103.5q0 -105 -60 -163.5t-157 -58.5q-37 0 -75 9q-15 4 -15 20v105q0 20 19 15q25 -5 49 -5q37 0 60.5 22t23.5 61q0 83 -89 83h-45q-18 0 -18 17v96q0 18 18 18h41q30 0 47 21t17 58q0 79 -81 79q-82 0 -82 -93 v-480q0 -18 -18 -18h-117q-18 0 -18 18v479q0 111 64.5 171t173.5 60q107 0 170 -55.5t63 -156.5z" />
<glyph unicode="&#xe0;" horiz-adv-x="527" d="M53 479q86 55 206 55q106 0 162.5 -56t56.5 -168v-274q0 -15 -15 -20q-95 -29 -206 -29t-173 43t-62 129q0 77 57 116.5t161 39.5q35 0 85 -6v10q0 42 -18.5 62t-65.5 20q-74 0 -125 -28q-16 -9 -24 6l-41 78q-8 15 2 22zM177 163q0 -52 80 -52q32 0 68 8v88q-30 6 -69 6 q-79 0 -79 -50zM327 585h-87q-14 0 -21 10l-106 131q-7 9 -4.5 15.5t13.5 6.5h113q13 0 21 -12l82 -130q6 -8 2.5 -14.5t-13.5 -6.5z" />
<glyph unicode="&#xe1;" horiz-adv-x="527" d="M53 479q86 55 206 55q106 0 162.5 -56t56.5 -168v-274q0 -15 -15 -20q-95 -29 -206 -29t-173 43t-62 129q0 77 57 116.5t161 39.5q35 0 85 -6v10q0 42 -18.5 62t-65.5 20q-74 0 -125 -28q-16 -9 -24 6l-41 78q-8 15 2 22zM177 163q0 -52 80 -52q32 0 68 8v88q-30 6 -69 6 q-79 0 -79 -50zM276 585h-87q-10 0 -13.5 6.5t2.5 14.5l82 130q8 12 21 12h113q11 0 13.5 -6.5t-4.5 -15.5l-106 -131q-7 -10 -21 -10z" />
<glyph unicode="&#xe2;" horiz-adv-x="527" d="M53 479q86 55 206 55q106 0 162.5 -56t56.5 -168v-274q0 -15 -15 -20q-95 -29 -206 -29t-173 43t-62 129q0 77 57 116.5t161 39.5q35 0 85 -6v10q0 42 -18.5 62t-65.5 20q-74 0 -125 -28q-16 -9 -24 6l-41 78q-8 15 2 22zM177 163q0 -52 80 -52q32 0 68 8v88q-30 6 -69 6 q-79 0 -79 -50zM187 577h-88q-11 0 -13.5 6.5t4.5 15.5l112 131q9 10 22 10h75q14 0 21 -10l111 -131q8 -9 5 -15.5t-14 -6.5h-88q-14 0 -21 10l-52 64l-53 -64q-7 -10 -21 -10z" />
<glyph unicode="&#xe3;" horiz-adv-x="527" d="M53 479q86 55 206 55q106 0 162.5 -56t56.5 -168v-274q0 -15 -15 -20q-95 -29 -206 -29t-173 43t-62 129q0 77 57 116.5t161 39.5q35 0 85 -6v10q0 42 -18.5 62t-65.5 20q-74 0 -125 -28q-16 -9 -24 6l-41 78q-8 15 2 22zM177 163q0 -52 80 -52q32 0 68 8v88q-30 6 -69 6 q-79 0 -79 -50zM446 673q-14 -38 -42 -68.5t-66 -30.5q-27 0 -79 27q-42 23 -55 23q-20 0 -38 -32q-10 -15 -24 -7l-62 33q-14 7 -8 23q14 37 41.5 66t64.5 29q28 0 80 -26q42 -23 59 -23q16 0 34 31q9 15 23 7l62 -32q14 -9 10 -20z" />
<glyph unicode="&#xe4;" horiz-adv-x="527" d="M53 479q86 55 206 55q106 0 162.5 -56t56.5 -168v-274q0 -15 -15 -20q-95 -29 -206 -29t-173 43t-62 129q0 77 57 116.5t161 39.5q35 0 85 -6v10q0 42 -18.5 62t-65.5 20q-74 0 -125 -28q-16 -9 -24 6l-41 78q-8 15 2 22zM177 163q0 -52 80 -52q32 0 68 8v88q-30 6 -69 6 q-79 0 -79 -50zM225 651q0 -35 -20 -54.5t-53 -19.5t-54 19.5t-21 53.5q0 35 21 55t54 20t53 -19.5t20 -54.5zM445 651q0 -35 -20 -54.5t-53 -19.5q-34 0 -54.5 19.5t-20.5 54.5t20.5 54.5t54.5 19.5q33 0 53 -19.5t20 -54.5z" />
<glyph unicode="&#xe5;" horiz-adv-x="527" d="M53 479q86 55 206 55q106 0 162.5 -56t56.5 -168v-274q0 -15 -15 -20q-95 -29 -206 -29t-173 43t-62 129q0 77 57 116.5t161 39.5q35 0 85 -6v10q0 42 -18.5 62t-65.5 20q-74 0 -125 -28q-16 -9 -24 6l-41 78q-8 15 2 22zM177 163q0 -52 80 -52q32 0 68 8v88q-30 6 -69 6 q-79 0 -79 -50zM390 684q0 -49 -35.5 -79.5t-91.5 -30.5q-57 0 -93 30.5t-36 80.5q0 49 36 78.5t93 29.5t92 -30t35 -79zM215 684q0 -18 13.5 -29.5t34.5 -11.5t33.5 11.5t12.5 29.5q0 19 -12.5 30.5t-33.5 11.5t-34.5 -11.5t-13.5 -30.5z" />
<glyph unicode="&#xe6;" horiz-adv-x="796" d="M545 -13q-86 0 -136 39q-65 -39 -166 -39q-100 0 -160 44t-60 126q0 78 58.5 119t162.5 41q38 0 78 -5v17q0 71 -88 71q-63 0 -114 -28q-15 -8 -24 6l-48 79q-8 15 5 24q86 52 190 52q92 0 150 -53q61 53 154 53q94 0 153 -54t59 -152v-99q0 -18 -17 -18h-273v-15 q0 -75 82 -75q71 0 121 37q15 9 25 -4l54 -74q10 -14 -3 -24q-79 -68 -203 -68zM174 162q0 -50 77 -50q49 0 80 14q-9 22 -9 52v32q-28 4 -65 4q-83 0 -83 -52zM469 331v-22h147v22q0 78 -73 78q-74 0 -74 -78z" />
<glyph unicode="&#xe7;" horiz-adv-x="473" d="M454 42q-69 -50 -157 -54l-15 -37q86 -6 86 -77q0 -43 -36 -65.5t-99 -22.5q-32 0 -55 8q-14 3 -14 20v31q0 17 19 14q20 -4 30 -4q51 0 51 28q0 24 -42 28q-15 0 -21 12q-2 6 3 16l20 52q-88 13 -136 69t-48 145v113q0 100 62.5 158t173.5 58q87 0 164 -47q14 -10 5 -25 l-53 -80q-8 -14 -25 -6q-43 23 -84 23t-64.5 -21.5t-23.5 -59.5v-113q0 -41 23.5 -62t63.5 -21q50 0 96 29q15 9 25 -5l54 -80q10 -14 -3 -24z" />
<glyph unicode="&#xe8;" horiz-adv-x="530" d="M495 321v-96q0 -17 -18 -17h-283v-16q0 -38 23 -57.5t63 -19.5q65 0 127 36q13 10 23 -4l52 -69q10 -15 -3 -25q-86 -66 -204 -66q-103 0 -169 54t-66 154v126q0 106 65 159.5t167 53.5q99 0 161 -53t62 -160zM348 328q0 39 -21 59t-56 20q-77 0 -77 -79v-21h154v21z M334 585h-87q-14 0 -21 10l-106 131q-7 9 -4.5 15.5t13.5 6.5h113q14 0 21 -12l82 -130q6 -8 2.5 -14.5t-13.5 -6.5z" />
<glyph unicode="&#xe9;" horiz-adv-x="530" d="M495 321v-96q0 -17 -18 -17h-283v-16q0 -38 23 -57.5t63 -19.5q65 0 127 36q13 10 23 -4l52 -69q10 -15 -3 -25q-86 -66 -204 -66q-103 0 -169 54t-66 154v126q0 106 65 159.5t167 53.5q99 0 161 -53t62 -160zM348 328q0 39 -21 59t-56 20q-77 0 -77 -79v-21h154v21z M284 583h-87q-10 0 -13.5 6.5t2.5 14.5l82 130q8 12 21 12h113q11 0 13.5 -6.5t-4.5 -15.5l-106 -131q-7 -10 -21 -10z" />
<glyph unicode="&#xea;" horiz-adv-x="530" d="M495 321v-96q0 -17 -18 -17h-283v-16q0 -38 23 -57.5t63 -19.5q65 0 127 36q13 10 23 -4l52 -69q10 -15 -3 -25q-86 -66 -204 -66q-103 0 -169 54t-66 154v126q0 106 65 159.5t167 53.5q99 0 161 -53t62 -160zM348 328q0 39 -21 59t-56 20q-77 0 -77 -79v-21h154v21z M197 575h-88q-11 0 -13.5 6.5t4.5 15.5l112 131q9 10 22 10h75q14 0 21 -10l111 -131q8 -9 5 -15.5t-14 -6.5h-88q-14 0 -21 10l-52 64l-53 -64q-7 -10 -21 -10z" />
<glyph unicode="&#xeb;" horiz-adv-x="530" d="M495 321v-96q0 -17 -18 -17h-283v-16q0 -38 23 -57.5t63 -19.5q65 0 127 36q13 10 23 -4l52 -69q10 -15 -3 -25q-86 -66 -204 -66q-103 0 -169 54t-66 154v126q0 106 65 159.5t167 53.5q99 0 161 -53t62 -160zM348 328q0 39 -21 59t-56 20q-77 0 -77 -79v-21h154v21z M234 653q0 -35 -20 -54.5t-53 -19.5t-54 19.5t-21 53.5q0 35 21 55t54 20t53 -19.5t20 -54.5zM454 653q0 -35 -20 -54.5t-53 -19.5q-34 0 -54.5 19.5t-20.5 54.5t20.5 54.5t54.5 19.5q33 0 53 -19.5t20 -54.5z" />
<glyph unicode="&#xec;" horiz-adv-x="265" d="M192 0h-118q-18 0 -18 18v485q0 17 18 17h118q17 0 17 -17v-485q0 -18 -17 -18zM199 585h-87q-14 0 -21 10l-106 131q-7 9 -4.5 15.5t13.5 6.5h113q13 0 21 -12l82 -130q6 -8 2.5 -14.5t-13.5 -6.5z" />
<glyph unicode="&#xed;" horiz-adv-x="265" d="M191 0h-118q-18 0 -18 18v485q0 17 18 17h118q17 0 17 -17v-485q0 -18 -17 -18zM147 585h-87q-10 0 -13.5 6.5t2.5 14.5l82 130q7 12 21 12h113q11 0 13.5 -6.5t-4.5 -15.5l-106 -131q-7 -10 -21 -10z" />
<glyph unicode="&#xee;" horiz-adv-x="265" d="M191 0h-117q-18 0 -18 18v485q0 17 18 17h117q18 0 18 -17v-485q0 -18 -18 -18zM68 575h-85q-11 0 -14 6.5t4 15.5l102 130q8 11 22 11h71q15 0 22 -11l102 -130q7 -9 3.5 -15.5t-14.5 -6.5h-84q-14 0 -22 11l-42 64l-44 -64q-8 -11 -21 -11z" />
<glyph unicode="&#xef;" horiz-adv-x="265" d="M192 0h-118q-18 0 -18 18v485q0 17 18 17h118q17 0 17 -17v-485q0 -18 -17 -18zM108 653q0 -33 -19.5 -52t-50.5 -19q-32 0 -52 19t-20 51q0 33 20 52.5t52 19.5q31 0 50.5 -19t19.5 -52zM301 653q0 -33 -20 -52t-52 -19q-31 0 -51 19.5t-20 51.5t20 51.5t51 19.5 q32 0 52 -19t20 -52z" />
<glyph unicode="&#xf0;" horiz-adv-x="557" d="M435 675l-39 -32q115 -109 115 -316v-120q0 -104 -63 -162t-173 -58q-111 0 -174.5 57t-63.5 157v70q0 91 60.5 149.5t155.5 58.5q72 0 118 -41q-16 74 -76 121l-64 -52q-13 -12 -25 3l-23 26q-10 13 3 26l42 35q-46 18 -95 18q-18 0 -18 17v88q0 17 18 17q119 0 204 -50 l53 43q13 12 26 -3l21 -27q12 -13 -2 -25zM193 199q0 -77 82 -77q80 0 82 77v66q0 38 -21.5 58.5t-60.5 20.5q-40 0 -61 -20.5t-21 -58.5v-66z" />
<glyph unicode="&#xf1;" horiz-adv-x="565" d="M190 -1h-118q-18 0 -18 18v455q0 15 13 21q100 41 210 41q114 0 176 -60t62 -172v-285q0 -18 -18 -18h-118q-18 0 -18 18v285q0 52 -21 74t-63 22q-41 0 -70 -9v-372q0 -18 -17 -18zM458 682q-14 -38 -42 -68.5t-66 -30.5q-27 0 -79 27q-42 23 -55 23q-20 0 -38 -32 q-10 -15 -24 -7l-62 33q-14 7 -8 23q14 37 41.5 66t64.5 29q28 0 80 -26q42 -23 59 -23q16 0 34 31q9 15 23 7l62 -32q14 -9 10 -20z" />
<glyph unicode="&#xf2;" horiz-adv-x="555" d="M515 199q0 -99 -63.5 -155.5t-173.5 -56.5t-174 56.5t-64 155.5v120q0 100 64 157.5t174 57.5t173.5 -57.5t63.5 -157.5v-120zM196 199q0 -77 82 -77t82 77v120q0 38 -21 58.5t-61 20.5t-61 -20.5t-21 -58.5v-120zM344 585h-87q-14 0 -21 10l-106 131q-7 9 -4.5 15.5 t13.5 6.5h113q14 0 21 -12l82 -130q6 -8 2.5 -14.5t-13.5 -6.5z" />
<glyph unicode="&#xf3;" horiz-adv-x="555" d="M515 199q0 -99 -63.5 -155.5t-173.5 -56.5t-174 56.5t-64 155.5v120q0 100 64 157.5t174 57.5t173.5 -57.5t63.5 -157.5v-120zM196 199q0 -77 82 -77t82 77v120q0 38 -21 58.5t-61 20.5t-61 -20.5t-21 -58.5v-120zM293 585h-87q-10 0 -13.5 6.5t2.5 14.5l82 130 q7 12 21 12h113q11 0 13.5 -6.5t-4.5 -15.5l-106 -131q-7 -10 -21 -10z" />
<glyph unicode="&#xf4;" horiz-adv-x="555" d="M515 199q0 -99 -63.5 -155.5t-173.5 -56.5t-174 56.5t-64 155.5v120q0 100 64 157.5t174 57.5t173.5 -57.5t63.5 -157.5v-120zM196 199q0 -77 82 -77t82 77v120q0 38 -21 58.5t-61 20.5t-61 -20.5t-21 -58.5v-120zM204 575h-88q-11 0 -13.5 6.5t4.5 15.5l112 131 q9 10 22 10h75q14 0 21 -10l111 -131q8 -9 5 -15.5t-14 -6.5h-88q-14 0 -21 10l-52 64l-53 -64q-7 -10 -21 -10z" />
<glyph unicode="&#xf5;" horiz-adv-x="555" d="M515 199q0 -99 -63.5 -155.5t-173.5 -56.5t-174 56.5t-64 155.5v120q0 100 64 157.5t174 57.5t173.5 -57.5t63.5 -157.5v-120zM196 199q0 -77 82 -77t82 77v120q0 38 -21 58.5t-61 20.5t-61 -20.5t-21 -58.5v-120zM463 675q-14 -38 -42 -68.5t-66 -30.5q-27 0 -79 27 q-42 23 -55 23q-20 0 -38 -32q-10 -15 -24 -7l-62 33q-14 7 -8 23q14 37 41.5 66t64.5 29q28 0 80 -26q42 -23 59 -23q16 0 34 31q9 15 23 7l62 -32q14 -9 10 -20z" />
<glyph unicode="&#xf6;" horiz-adv-x="555" d="M515 199q0 -99 -63.5 -155.5t-173.5 -56.5t-174 56.5t-64 155.5v120q0 100 64 157.5t174 57.5t173.5 -57.5t63.5 -157.5v-120zM196 199q0 -77 82 -77t82 77v120q0 38 -21 58.5t-61 20.5t-61 -20.5t-21 -58.5v-120zM242 653q0 -35 -20 -54.5t-53 -19.5t-54 19.5t-21 53.5 q0 35 21 55t54 20t53 -19.5t20 -54.5zM462 653q0 -35 -20 -54.5t-53 -19.5q-34 0 -54.5 19.5t-20.5 54.5t20.5 54.5t54.5 19.5q33 0 53 -19.5t20 -54.5z" />
<glyph unicode="&#xf7;" d="M539 264h-449q-17 0 -17 17v107q0 17 17 17h449q18 0 18 -17v-107q0 -17 -18 -17zM409 126q0 -40 -26 -65.5t-67 -25.5t-66 25t-25 66t25 66.5t66 25.5t67 -25.5t26 -66.5zM409 540q0 -40 -26 -65.5t-67 -25.5t-66 25.5t-25 65.5q0 41 25 66.5t66 25.5t67 -25.5t26 -66.5 z" />
<glyph unicode="&#xf8;" horiz-adv-x="554" d="M121 -75h-73q-10 0 -13.5 6.5t1.5 14.5l60 104q-56 56 -56 147v123q0 100 63.5 157t173.5 57q47 0 91 -13l36 62q8 12 22 12h72q10 0 14 -6.5t-1 -14.5l-58 -100q61 -56 61 -154v-123q0 -98 -63.5 -154.5t-173.5 -56.5q-55 0 -98 15l-37 -64q-6 -12 -21 -12zM195 201 q0 -79 82 -79t82 79v116q0 82 -82 82t-82 -82v-116z" />
<glyph unicode="&#xf9;" horiz-adv-x="559" d="M369 520h118q18 0 18 -17v-455q0 -15 -13 -21q-96 -40 -206 -40q-114 0 -175 59.5t-61 172.5v284q0 17 18 17h118q18 0 18 -17v-285q0 -53 20.5 -74.5t61.5 -21.5t66 10v371q0 17 17 17zM348 575h-87q-14 0 -21 10l-106 131q-7 9 -4.5 15.5t13.5 6.5h113q14 0 21 -12 l82 -130q6 -8 2.5 -14.5t-13.5 -6.5z" />
<glyph unicode="&#xfa;" horiz-adv-x="559" d="M369 520h118q18 0 18 -17v-455q0 -15 -13 -21q-96 -40 -206 -40q-114 0 -175 59.5t-61 172.5v284q0 17 18 17h118q18 0 18 -17v-285q0 -53 20.5 -74.5t61.5 -21.5t66 10v371q0 17 17 17zM297 575h-87q-10 0 -13.5 6.5t2.5 14.5l82 130q7 12 21 12h113q11 0 13.5 -6.5 t-4.5 -15.5l-106 -131q-7 -10 -21 -10z" />
<glyph unicode="&#xfb;" horiz-adv-x="559" d="M369 520h118q18 0 18 -17v-455q0 -15 -13 -21q-96 -40 -206 -40q-114 0 -175 59.5t-61 172.5v284q0 17 18 17h118q18 0 18 -17v-285q0 -53 20.5 -74.5t61.5 -21.5t66 10v371q0 17 17 17zM208 577h-88q-11 0 -13.5 6.5t4.5 15.5l112 131q9 10 22 10h75q14 0 21 -10 l111 -131q8 -9 5 -15.5t-14 -6.5h-88q-14 0 -21 10l-52 64l-53 -64q-7 -10 -21 -10z" />
<glyph unicode="&#xfc;" horiz-adv-x="559" d="M369 520h118q18 0 18 -17v-455q0 -15 -13 -21q-96 -40 -206 -40q-114 0 -175 59.5t-61 172.5v284q0 17 18 17h118q18 0 18 -17v-285q0 -53 20.5 -74.5t61.5 -21.5t66 10v371q0 17 17 17zM246 657q0 -35 -20 -54.5t-53 -19.5t-54 19.5t-21 53.5q0 35 21 55t54 20t53 -19.5 t20 -54.5zM466 657q0 -35 -20 -54.5t-53 -19.5q-34 0 -54.5 19.5t-20.5 54.5t20.5 54.5t54.5 19.5q33 0 53 -19.5t20 -54.5z" />
<glyph unicode="&#xfd;" horiz-adv-x="560" d="M351 159v344q0 17 18 17h118q17 0 17 -17v-453q0 -131 -57 -191.5t-180 -60.5t-199 55q-15 9 -5 24l53 81q9 13 23 6q57 -34 121 -34q48 0 71.5 22t22.5 75q-49 -14 -91 -14q-93 0 -153 57.5t-60 156.5v276q0 17 18 17h118q17 0 17 -17v-273q0 -85 83 -85q39 0 65 14z M295 575h-87q-10 0 -13.5 6.5t2.5 14.5l82 130q7 12 21 12h113q11 0 13.5 -6.5t-4.5 -15.5l-106 -131q-7 -10 -21 -10z" />
<glyph unicode="&#xfe;" horiz-adv-x="555" d="M209 522q39 13 81 13q98 0 162.5 -60.5t64.5 -167.5v-93q0 -103 -65 -165t-162 -62q-45 0 -81 15v-174q0 -18 -17 -18h-118q-18 0 -18 18v867q0 17 18 17h118q17 0 17 -17v-173zM277 122q38 0 61.5 20t23.5 62v112q0 84 -85 84q-37 0 -68 -12v-251q32 -15 68 -15z" />
<glyph unicode="&#xff;" horiz-adv-x="560" d="M351 159v344q0 17 18 17h118q17 0 17 -17v-453q0 -131 -57 -191.5t-180 -60.5t-199 55q-15 9 -5 24l53 81q9 13 23 6q57 -34 121 -34q48 0 71.5 22t22.5 75q-49 -14 -91 -14q-93 0 -153 57.5t-60 156.5v276q0 17 18 17h118q17 0 17 -17v-273q0 -85 83 -85q39 0 65 14z M244 655q0 -35 -20 -54.5t-53 -19.5t-54 19.5t-21 53.5q0 35 21 55t54 20t53 -19.5t20 -54.5zM464 655q0 -35 -20 -54.5t-53 -19.5q-34 0 -54.5 19.5t-20.5 54.5t20.5 54.5t54.5 19.5q33 0 53 -19.5t20 -54.5z" />
<glyph unicode="&#x192;" horiz-adv-x="510" d="M278 35q-28 -163 -181 -163q-37 0 -79 12q-16 4 -12 22l23 87q3 16 21 13q18 -2 25 -2q22 0 34.5 12.5t16.5 42.5l42 223h-65q-18 0 -18 18v103q0 17 18 17h88l28 149q12 65 54.5 112t122.5 47q51 0 91 -10q16 -3 13 -21l-18 -87q-3 -16 -21 -13q-15 3 -32 3 q-51 0 -61 -60l-22 -120h80q18 0 18 -17v-103q0 -18 -18 -18h-104z" />
<glyph unicode="&#x2c6;" horiz-adv-x="351" d="M120 595h-88q-11 0 -13.5 6.5t4.5 15.5l112 131q9 10 22 10h75q14 0 21 -10l111 -131q8 -9 5 -15.5t-14 -6.5h-88q-14 0 -21 10l-52 64l-53 -64q-7 -10 -21 -10z" />
<glyph unicode="&#x2da;" horiz-adv-x="240" d="M248 705q0 -55 -34.5 -88t-90.5 -33q-57 0 -92 33.5t-35 88.5q0 54 35.5 87t91.5 33t90.5 -33t34.5 -88zM76 705q0 -20 13 -32.5t34 -12.5t33 12.5t12 32.5q0 22 -12 34t-33 12t-34 -12.5t-13 -33.5z" />
<glyph unicode="&#x2dc;" horiz-adv-x="358" d="M383 688q-14 -38 -42 -68.5t-66 -30.5q-27 0 -79 27q-42 23 -55 23q-20 0 -38 -32q-10 -15 -24 -7l-62 33q-14 7 -8 23q14 37 41.5 66t64.5 29q28 0 80 -26q42 -23 59 -23q16 0 34 31q9 15 23 7l62 -32q14 -9 10 -20z" />
<glyph unicode="&#x3a9;" horiz-adv-x="720" d="M305 0h-227q-17 0 -17 18v101q0 17 17 17h51q-64 81 -64 182v126q0 134 78 209t217 75t216.5 -75t77.5 -209v-126q0 -103 -64 -182h51q17 0 17 -17v-101q0 -18 -17 -18h-227q-18 0 -18 18v97q0 14 14 20q79 29 79 156v150q0 137 -129 137t-129 -137v-150q0 -127 78 -156 q14 -6 14 -20v-97q0 -18 -18 -18z" />
<glyph unicode="&#x3c0;" horiz-adv-x="557" d="M74 520h410q17 0 17 -17v-485q0 -18 -17 -18h-118q-18 0 -18 18v369h-139v-369q0 -18 -17 -18h-118q-18 0 -18 18v485q0 17 18 17z" />
<glyph unicode="&#x401;" horiz-adv-x="592" d="M235 291v-146h297q18 0 18 -17v-110q0 -18 -18 -18h-440q-18 0 -18 18v679q0 18 18 18h424q18 0 18 -18v-110q0 -17 -18 -17h-281v-137h248q18 0 18 -17v-108q0 -17 -18 -17h-248zM274 848q0 -33 -22 -54.5t-55 -21.5t-54.5 21.5t-21.5 54.5t21.5 54.5t54.5 21.5 t55 -21.5t22 -54.5zM494 848q0 -33 -22 -54.5t-56 -21.5t-55 21.5t-21 54.5t21 54.5t55 21.5t56 -21.5t22 -54.5z" />
<glyph unicode="&#x402;" horiz-adv-x="719" d="M370 483q43 16 104 16q96 0 153 -60.5t57 -170.5v-87q0 -92 -49.5 -143t-138.5 -51q-29 0 -46 4q-15 3 -15 20v100q0 17 14 17q14 -2 21 -2q56 0 56 73v68q0 51 -20 73.5t-64 22.5q-42 0 -72 -15v-330q0 -18 -17 -18h-123q-17 0 -17 18v552h-183q-18 0 -18 17v110 q0 18 18 18h526q17 0 17 -18v-110q0 -17 -17 -17h-186v-87z" />
<glyph unicode="&#x403;" horiz-adv-x="521" d="M217 0h-125q-18 0 -18 18v679q0 18 18 18h400q18 0 18 -18v-114q0 -17 -18 -17h-257v-548q0 -18 -18 -18zM463 914l-126 -132q-8 -9 -21 -9h-97q-11 0 -14.5 6t3.5 15l101 131q7 11 21 11h123q11 0 14 -7t-4 -15z" />
<glyph unicode="&#x404;" horiz-adv-x="599" d="M574 59q-98 -73 -230 -73q-135 0 -213.5 69.5t-78.5 197.5v209q0 128 78.5 197t210.5 69q121 0 212 -64q15 -9 5 -23l-63 -96q-10 -14 -25 -5q-55 36 -126 36q-62 0 -95.5 -32.5t-33.5 -87.5v-31h192q18 0 18 -18v-99q0 -18 -18 -18h-192v-30q0 -58 34 -89.5t96 -31.5 q80 0 142 42q15 11 24 -4l64 -96q10 -14 -1 -22z" />
<glyph unicode="&#x405;" d="M597 212q0 -104 -77.5 -164t-209.5 -60q-76 0 -137 23t-126 75q-13 10 -4 24l68 97q10 14 24 3q97 -68 186 -69q50 0 80.5 17t30.5 49q0 24 -19.5 40.5t-43.5 24.5t-66 16q-251 52 -251 233q0 100 75.5 153.5t195.5 53.5q126 0 242 -77q16 -10 5 -24l-64 -96 q-10 -14 -25 -5q-79 50 -166 50q-99 0 -99 -60q0 -31 27.5 -45t99.5 -31q60 -15 100 -30t78 -40.5t57 -65t19 -92.5z" />
<glyph unicode="&#x406;" horiz-adv-x="309" d="M235 697v-679q0 -18 -18 -18h-125q-18 0 -18 18v679q0 18 18 18h125q18 0 18 -18z" />
<glyph unicode="&#x407;" horiz-adv-x="308" d="M128 868q0 -32 -21 -53t-53 -21t-53 21t-21 53t21 52.5t53 20.5t53 -20.5t21 -52.5zM329 868q0 -32 -21.5 -53t-53.5 -21q-33 0 -53.5 20.5t-20.5 53.5q0 32 20 52.5t54 20.5q32 0 53.5 -20.5t21.5 -52.5zM235 697v-679q0 -18 -18 -18h-125q-18 0 -18 18v679q0 18 18 18 h125q18 0 18 -18z" />
<glyph unicode="&#x408;" horiz-adv-x="529" d="M462 255q0 -127 -67 -197t-181 -70q-111 0 -204 71q-13 8 -5 23l60 95q9 15 25 4q57 -41 120 -41q91 0 91 114v443q0 18 17 18h126q18 0 18 -18v-442z" />
<glyph unicode="&#x409;" horiz-adv-x="1016" d="M262 135q-33 -71 -88 -102.5t-142 -33.5q-18 0 -18 17v114q0 16 17 18q68 4 94 84q32 95 53 464q1 19 18 19h421q18 0 18 -18v-234h107q118 0 184 -59t66 -170t-65 -172.5t-177 -61.5h-257q-17 0 -17 18v547h-146q-14 -312 -68 -430zM635 314v-164h105q87 0 87 82t-89 82 h-103z" />
<glyph unicode="&#x40a;" horiz-adv-x="987" d="M216 0h-124q-18 0 -18 18v675q0 18 18 18h124q18 0 18 -18v-246h213v246q0 18 18 18h125q17 0 17 -18v-244h105q120 0 186 -55t66 -160q0 -111 -65.5 -172.5t-178.5 -61.5h-255q-18 0 -18 18v277h-213v-277q0 -18 -18 -18zM607 303v-157h106q87 0 87 83q0 74 -89 74h-104 z" />
<glyph unicode="&#x40b;" horiz-adv-x="721" d="M369 484q43 15 100 15q96 0 153 -60.5t57 -170.5v-250q0 -18 -18 -18h-122q-17 0 -17 18v249q0 51 -20.5 73.5t-64.5 22.5q-36 0 -68 -13v-332q0 -18 -18 -18h-122q-18 0 -18 18v552h-181q-18 0 -18 17v110q0 18 18 18h523q17 0 17 -18v-110q0 -17 -17 -17h-184v-86z" />
<glyph unicode="&#x40c;" horiz-adv-x="645" d="M508 907l-126 -132q-8 -9 -21 -9h-97q-11 0 -14.5 6t3.5 15l101 131q7 11 21 11h123q11 0 14.5 -7t-4.5 -15zM217 0h-125q-18 0 -18 18v679q0 18 18 18h125q18 0 18 -18v-252l192 259q8 11 22 11h158q11 0 14.5 -6t-3.5 -15l-238 -292l266 -381q7 -8 3.5 -14.5 t-14.5 -6.5h-154q-13 0 -21 12l-181 267l-44 -50v-211q0 -18 -18 -18z" />
<glyph unicode="&#x40e;" horiz-adv-x="594" d="M282 0h-138q-9 0 -12.5 5.5t0.5 14.5l90 206l-219 469q-8 20 13 20h138q15 0 21 -14l125 -301l115 301q6 14 20 14h138q21 0 14 -20l-284 -681q-6 -14 -21 -14zM477 894q-11 -61 -58.5 -97.5t-123.5 -36.5q-75 0 -122 35.5t-58 96.5q-4 14 14 20l82 18q15 5 20 -12 q14 -43 64 -43q51 0 65 43q5 17 20 12l82 -18q16 -5 15 -18z" />
<glyph unicode="&#x40f;" horiz-adv-x="695" d="M478 715h125q18 0 18 -18v-679q0 -18 -18 -18h-179v-116q0 -17 -18 -17h-117q-18 0 -18 17v116h-179q-18 0 -18 18v679q0 18 18 18h125q18 0 18 -18v-548h225v548q0 18 18 18z" />
<glyph unicode="&#x410;" horiz-adv-x="664" d="M153 0h-134q-21 0 -14 20l232 681q6 14 19 14h152q14 0 19 -14l232 -681q8 -20 -14 -20h-133q-16 0 -21 15l-37 122h-243l-38 -122q-4 -15 -20 -15zM330 540q-5 -16 -33.5 -114.5t-44.5 -149.5h161q-3 10 -79 264h-4z" />
<glyph unicode="&#x411;" horiz-adv-x="649" d="M235 446h124q257 0 257 -218q0 -113 -65 -170.5t-187 -57.5h-272q-18 0 -18 18v679q0 18 18 18h451q18 0 18 -18v-105q0 -18 -18 -18h-308v-128zM235 143h128q89 0 89 86q0 42 -21.5 61.5t-67.5 19.5h-128v-167z" />
<glyph unicode="&#x412;" horiz-adv-x="650" d="M582 513q0 -91 -69 -132q99 -41 99 -160q0 -104 -64.5 -162.5t-180.5 -58.5h-275q-18 0 -18 18v679q0 18 18 18h273q103 0 160 -53t57 -149zM235 142h122q42 0 66.5 21t24.5 63q0 81 -95 81h-118v-165zM418 506q0 34 -19.5 52t-55.5 18h-108v-140h108q75 0 75 70z" />
<glyph unicode="&#x413;" horiz-adv-x="521" d="M217 0h-125q-18 0 -18 18v679q0 18 18 18h400q18 0 18 -18v-114q0 -17 -18 -17h-257v-548q0 -18 -18 -18z" />
<glyph unicode="&#x414;" horiz-adv-x="742" d="M155 -133h-124q-17 0 -17 17v247q0 17 17 17h26q33 16 54 67.5t37 165.5t28 315q1 19 18 19h424q18 0 18 -18v-548h49q17 0 17 -18v-247q0 -17 -17 -17h-123q-18 0 -18 17v116h-372v-116q0 -17 -17 -17zM329 566q-18 -336 -79 -418h225v418h-146z" />
<glyph unicode="&#x415;" horiz-adv-x="592" d="M235 291v-146h297q18 0 18 -17v-110q0 -18 -18 -18h-440q-18 0 -18 18v679q0 18 18 18h424q18 0 18 -18v-110q0 -17 -18 -17h-281v-137h248q18 0 18 -17v-108q0 -17 -18 -17h-248z" />
<glyph unicode="&#x416;" horiz-adv-x="944" d="M929 0h-152q-13 0 -21 12l-166 268l-39 -50v-212q0 -18 -18 -18h-122q-17 0 -17 18v212l-40 50l-166 -268q-6 -12 -21 -12h-152q-11 0 -14 6t3 15l251 379l-224 294q-7 9 -3.5 15t14.5 6h151q14 0 21 -12l102 -147q6 -9 78 -123v264q0 18 17 18h122q18 0 18 -18v-264 q39 65 78 123l101 147q7 12 22 12h150q11 0 14.5 -6t-3.5 -15l-224 -294l251 -379q6 -9 3 -15t-14 -6z" />
<glyph unicode="&#x417;" horiz-adv-x="614" d="M551 522q0 -46 -22.5 -84.5t-59.5 -57.5q48 -22 75.5 -65.5t27.5 -100.5q0 -110 -78.5 -168.5t-201.5 -58.5q-163 0 -267 91q-11 10 -3 24l62 89q9 14 24 4q78 -61 181 -61q54 0 85.5 24t31.5 63q0 81 -132 81h-74q-17 0 -17 17v94q0 18 17 18h69q59 0 89 21t30 57 q0 35 -26 55.5t-77 20.5q-92 0 -161 -49q-15 -11 -24 4l-58 84q-9 13 2 24q95 80 242 80q125 0 195.5 -60t69.5 -146z" />
<glyph unicode="&#x418;" horiz-adv-x="711" d="M619 0h-124q-17 0 -17 18v157q0 123 16 285l-3 1q-55 -130 -116 -233l-130 -216q-7 -12 -21 -12h-133q-17 0 -17 18v679q0 18 17 18h124q18 0 18 -18v-179q0 -126 -11 -267l3 -1q28 63 107 214l134 239q6 12 20 12h133q18 0 18 -18v-679q0 -18 -18 -18z" />
<glyph unicode="&#x419;" horiz-adv-x="711" d="M544 894q-11 -61 -58.5 -97.5t-123.5 -36.5q-75 0 -122 35.5t-58 96.5q-4 14 14 20l82 18q15 5 20 -12q14 -43 64 -43q51 0 65 43q5 17 20 12l82 -18q16 -5 15 -18zM495 0h124q18 0 18 18v679q0 18 -18 18h-133q-14 0 -20 -12l-134 -239q-79 -151 -107 -214l-3 1 q11 141 11 267v179q0 18 -18 18h-124q-17 0 -17 -18v-679q0 -18 17 -18h133q14 0 21 12l130 216q61 103 116 233l3 -1q-16 -162 -16 -285v-157q0 -18 17 -18z" />
<glyph unicode="&#x41a;" horiz-adv-x="645" d="M217 0h-125q-18 0 -18 18v679q0 18 18 18h125q18 0 18 -18v-252l192 259q8 11 22 11h158q11 0 14.5 -6t-3.5 -15l-238 -292l266 -381q7 -8 3.5 -14.5t-14.5 -6.5h-154q-13 0 -21 12l-181 267l-44 -50v-211q0 -18 -18 -18z" />
<glyph unicode="&#x41b;" horiz-adv-x="710" d="M278 211q-29 -115 -87 -164t-158 -52q-18 0 -18 17v115q0 16 17 18q39 4 60.5 30.5t34.5 89.5q26 113 38 432q1 18 19 18h435q17 0 17 -18v-679q0 -18 -17 -18h-126q-17 0 -17 18v547h-157q-10 -226 -41 -354z" />
<glyph unicode="&#x41c;" horiz-adv-x="871" d="M215 0h-123q-18 0 -18 18v679q0 18 18 18h142q14 0 20 -13l90 -174q35 -68 90 -197h4q38 95 89 197l91 174q6 13 20 13h142q17 0 17 -18v-679q0 -18 -17 -18h-124q-18 0 -18 18v132q0 145 10 320l-4 1q-37 -90 -91 -201l-49 -99q-6 -13 -20 -13h-96q-15 0 -20 13l-50 99 q-54 111 -91 201l-4 -1q10 -175 10 -320v-132q0 -18 -18 -18z" />
<glyph unicode="&#x41d;" horiz-adv-x="695" d="M460 435v262q0 18 18 18h125q18 0 18 -18v-679q0 -18 -18 -18h-125q-18 0 -18 18v268h-225v-268q0 -18 -18 -18h-125q-18 0 -18 18v679q0 18 18 18h125q18 0 18 -18v-262h225z" />
<glyph unicode="&#x41e;" horiz-adv-x="685" d="M634 272q0 -134 -77 -209t-215 -75q-137 0 -214 75t-77 209v173q0 133 77 208t214 75q138 0 215 -74.5t77 -208.5v-173zM215 275q0 -135 127 -135t127 135v167q0 134 -127 134t-127 -134v-167z" />
<glyph unicode="&#x41f;" horiz-adv-x="696" d="M218 0h-126q-18 0 -18 18v679q0 18 18 18h512q18 0 18 -18v-679q0 -18 -18 -18h-125q-18 0 -18 18v548h-226v-548q0 -18 -17 -18z" />
<glyph unicode="&#x420;" horiz-adv-x="637" d="M91 715h265q118 0 187 -68.5t69 -184.5q0 -117 -69 -185.5t-187 -68.5h-122v-190q0 -18 -17 -18h-126q-17 0 -17 18v679q0 18 17 18zM234 357h100q113 0 113 105t-113 105h-100v-210z" />
<glyph unicode="&#x421;" horiz-adv-x="594" d="M571 59q-98 -73 -227 -73q-135 0 -213.5 69.5t-78.5 197.5v209q0 128 78.5 197t210.5 69q123 0 214 -64q15 -9 5 -23l-63 -96q-10 -14 -25 -5q-56 36 -128 36q-62 0 -95.5 -32.5t-33.5 -87.5v-196q0 -58 34 -89.5t96 -31.5q77 0 139 42q15 11 24 -4l64 -96q10 -14 -1 -22 z" />
<glyph unicode="&#x422;" horiz-adv-x="586" d="M30 715h526q17 0 17 -18v-114q0 -17 -17 -17h-183v-548q0 -18 -17 -18h-126q-17 0 -17 18v548h-183q-18 0 -18 17v114q0 18 18 18z" />
<glyph unicode="&#x423;" horiz-adv-x="594" d="M282 0h-138q-9 0 -12.5 5.5t0.5 14.5l90 206l-219 469q-8 20 13 20h138q15 0 21 -14l125 -301l115 301q6 14 20 14h138q21 0 14 -20l-284 -681q-6 -14 -21 -14z" />
<glyph unicode="&#x424;" horiz-adv-x="883" d="M504 -67h-125q-17 0 -17 18v68h-38q-124 0 -199 72.5t-75 205.5v119q0 133 75 205.5t199 72.5h38v63q0 18 17 18h125q18 0 18 -18v-63h38q124 0 198.5 -72.5t74.5 -205.5v-119q0 -133 -74.5 -205.5t-198.5 -72.5h-38v-68q0 -18 -18 -18zM215 289q0 -118 114 -118h33v371 h-33q-114 0 -114 -118v-135zM522 542v-371h33q114 0 114 118v135q0 118 -114 118h-33z" />
<glyph unicode="&#x425;" horiz-adv-x="626" d="M414 359l199 -338q5 -8 1.5 -14.5t-13.5 -6.5h-147q-14 0 -20 13l-121 226l-120 -226q-8 -13 -21 -13h-147q-10 0 -13.5 6.5t1.5 14.5l200 338l-184 335q-5 9 -1.5 15t14.5 6h141q14 0 20 -13l110 -227l110 227q6 13 20 13h142q10 0 13.5 -6t-0.5 -15z" />
<glyph unicode="&#x426;" horiz-adv-x="719" d="M663 -131h-118q-17 0 -17 18v113h-436q-18 0 -18 18v679q0 18 18 18h125q18 0 18 -18v-546h218v546q0 18 17 18h126q17 0 17 -18v-546h50q17 0 17 -17v-247q0 -18 -17 -18z" />
<glyph unicode="&#x427;" horiz-adv-x="650" d="M559 0h-126q-18 0 -18 18v228q-56 -27 -127 -27q-106 0 -176 63t-70 196v219q0 18 17 18h127q18 0 18 -18v-217q0 -56 28 -84t75 -28q61 0 108 31v298q0 18 18 18h126q17 0 17 -18v-679q0 -18 -17 -18z" />
<glyph unicode="&#x428;" horiz-adv-x="972" d="M881 0h-789q-18 0 -18 18v679q0 18 18 18h124q18 0 18 -18v-546h173v546q0 18 17 18h124q18 0 18 -18v-546h173v546q0 18 18 18h124q17 0 17 -18v-679q0 -18 -17 -18z" />
<glyph unicode="&#x429;" horiz-adv-x="1005" d="M949 -131h-118q-18 0 -18 18v113h-721q-18 0 -18 18v679q0 18 18 18h125q17 0 17 -18v-546h173v546q0 18 17 18h125q18 0 18 -18v-546h172v546q0 18 18 18h124q18 0 18 -18v-546h50q17 0 17 -17v-247q0 -18 -17 -18z" />
<glyph unicode="&#x42a;" horiz-adv-x="723" d="M449 0h-270q-17 0 -17 18v548h-129q-18 0 -18 18v113q0 18 18 18h272q18 0 18 -18v-217h118q122 0 190 -61.5t68 -175.5q0 -115 -67 -179t-183 -64zM323 331v-182h116q95 0 95 94q0 88 -97 88h-114z" />
<glyph unicode="&#x42b;" horiz-adv-x="929" d="M361 0h-269q-18 0 -18 18v679q0 18 18 18h126q17 0 17 -18v-217h118q121 0 189.5 -63t68.5 -174q0 -114 -66 -178.5t-184 -64.5zM837 0h-126q-17 0 -17 18v679q0 18 17 18h126q18 0 18 -18v-679q0 -18 -18 -18zM235 331v-182h116q95 0 95 94q0 88 -95 88h-116z" />
<glyph unicode="&#x42c;" horiz-adv-x="635" d="M361 0h-269q-18 0 -18 18v679q0 18 18 18h126q17 0 17 -18v-217h118q121 0 189.5 -62.5t68.5 -173.5q0 -115 -66 -179.5t-184 -64.5zM235 331v-182h116q95 0 95 95q0 87 -95 87h-116z" />
<glyph unicode="&#x42d;" horiz-adv-x="599" d="M25 59q-11 8 -1 22l64 96q9 15 24 4q62 -42 142 -42q62 0 96 31.5t34 89.5v30h-192q-18 0 -18 18v99q0 18 18 18h192v31q0 55 -33.5 87.5t-95.5 32.5q-71 0 -126 -36q-15 -9 -25 5l-63 96q-10 14 5 23q91 64 212 64q132 0 210.5 -69t78.5 -197v-209q0 -128 -78.5 -197.5 t-213.5 -69.5q-132 0 -230 73z" />
<glyph unicode="&#x42e;" horiz-adv-x="929" d="M877 256q0 -127 -76.5 -198t-200.5 -71t-200.5 71.5t-76.5 200.5l-4 30h-85v-271q0 -18 -18 -18h-124q-18 0 -18 18v679q0 18 18 18h124q18 0 18 -18v-259h86l3 22q0 127 76.5 197.5t200.5 70.5t200.5 -69.5t76.5 -194.5v-208zM487 259q0 -57 31 -87.5t82 -30.5 q52 0 83 30t31 88v200q0 58 -30.5 87t-83.5 29q-52 0 -82.5 -29t-30.5 -87v-200z" />
<glyph unicode="&#x42f;" horiz-adv-x="657" d="M50 474q0 113 69.5 177t193.5 64h253q17 0 17 -18v-679q0 -18 -17 -18h-126q-17 0 -17 18v220h-73l-138 -226q-7 -12 -22 -12h-155q-11 0 -14.5 6t3.5 15l165 238q-66 26 -102.5 81t-36.5 134zM320 377h103v188h-103q-51 0 -78 -24.5t-27 -69.5t27 -69.5t78 -24.5z" />
<glyph unicode="&#x430;" horiz-adv-x="527" d="M53 479q86 55 206 55q106 0 162.5 -56t56.5 -168v-274q0 -15 -15 -20q-95 -29 -206 -29t-173 43t-62 129q0 77 57 116.5t161 39.5q35 0 85 -6v10q0 42 -18.5 62t-65.5 20q-74 0 -125 -28q-16 -9 -24 6l-41 78q-8 15 2 22zM177 163q0 -52 80 -52q32 0 68 8v88q-30 6 -69 6 q-79 0 -79 -50z" />
<glyph unicode="&#x431;" horiz-adv-x="553" d="M205 472q45 20 107 20q91 0 146.5 -56t55.5 -150v-84q0 -106 -67 -160.5t-168 -54.5q-99 0 -163.5 54t-64.5 161v298q0 52 20.5 94t54 67.5t69 40.5t73.5 21q99 16 140 34q16 8 24 -6l50 -85q10 -16 -6 -24q-49 -27 -162 -51q-52 -11 -80.5 -31.5t-28.5 -67.5v-20z M278 122q35 0 58 19t23 57v92q0 81 -80 81q-43 0 -74 -17v-156q0 -38 20.5 -57t52.5 -19z" />
<glyph unicode="&#x432;" horiz-adv-x="543" d="M298 0h-224q-18 0 -18 18v485q0 17 18 17h217q95 0 148.5 -38t53.5 -106q0 -65 -60 -101q76 -33 76 -122q0 -71 -56.5 -112t-154.5 -41zM208 406v-91h75q58 0 58 46q0 45 -59 45h-74zM208 214v-100h79q68 0 68 51q0 49 -68 49h-79z" />
<glyph unicode="&#x433;" horiz-adv-x="425" d="M192 -4h-118q-18 0 -18 18v489q0 17 18 17h319q17 0 17 -17v-100q0 -18 -17 -18h-184v-371q0 -18 -17 -18z" />
<glyph unicode="&#x434;" horiz-adv-x="624" d="M146 -133h-111q-18 0 -18 17v231q0 17 18 17h25q33 24 51.5 103.5t30.5 266.5q2 18 18 18h356q17 0 17 -17v-371h46q18 0 18 -18v-230q0 -17 -18 -17h-111q-17 0 -17 17v116h-287v-116q0 -17 -18 -17zM281 389q-11 -190 -60 -257h162v257h-102z" />
<glyph unicode="&#x435;" horiz-adv-x="530" d="M495 321v-96q0 -17 -18 -17h-283v-16q0 -38 23 -57.5t63 -19.5q65 0 127 36q13 10 23 -4l52 -69q10 -15 -3 -25q-86 -66 -204 -66q-103 0 -169 54t-66 154v126q0 106 65 159.5t167 53.5q99 0 161 -53t62 -160zM348 328q0 39 -21 59t-56 20q-77 0 -77 -79v-21h154v21z" />
<glyph unicode="&#x436;" horiz-adv-x="764" d="M742 0h-137q-15 0 -20 13l-95 181l-34 -40v-136q0 -18 -18 -18h-112q-18 0 -18 18v136l-34 40l-95 -181q-5 -13 -20 -13h-137q-10 0 -13.5 6t1.5 15l166 279l-148 199q-6 9 -3 15t14 6h134q13 0 21 -12l39 -54q36 -59 75 -132v181q0 17 18 17h112q18 0 18 -17v-181 q39 73 75 132l39 54q8 12 21 12h134q11 0 14 -6t-3 -15l-148 -199l166 -279q5 -9 1.5 -15t-13.5 -6z" />
<glyph unicode="&#x437;" horiz-adv-x="504" d="M454 377q0 -68 -60 -103q77 -34 77 -121q0 -75 -60 -120.5t-168 -45.5q-138 0 -220 75q-11 11 -1 25l54 68q11 14 25 2q59 -46 132 -46q84 0 84 54q0 50 -83 50h-70q-17 0 -17 18v65q0 18 17 18h65q74 0 74 49q0 47 -73 47q-65 0 -121 -40q-14 -11 -24 2l-51 68 q-9 14 3 25q87 67 205 67q95 0 153.5 -44t58.5 -113z" />
<glyph unicode="&#x438;" horiz-adv-x="581" d="M196 0h-122q-18 0 -18 18v485q0 17 18 17h115q18 0 18 -17v-157q0 -49 -2 -127h1q25 56 78 147l79 142q5 12 20 12h124q18 0 18 -17v-485q0 -18 -18 -18h-115q-17 0 -17 18v157q0 55 2 125h-1q-24 -57 -79 -150l-80 -138q-6 -12 -21 -12z" />
<glyph unicode="&#x439;" horiz-adv-x="581" d="M196 0h-122q-18 0 -18 18v485q0 17 18 17h115q18 0 18 -17v-157q0 -49 -2 -127h1q25 56 78 147l79 142q5 12 20 12h124q18 0 18 -17v-485q0 -18 -18 -18h-115q-17 0 -17 18v157q0 55 2 125h-1q-24 -57 -79 -150l-80 -138q-6 -12 -21 -12zM459 705q-8 -64 -51.5 -100 t-116.5 -36t-116.5 35.5t-51.5 98.5q-3 16 15 20l74 12q15 3 20 -14q12 -44 59 -44q49 0 59 44q6 17 21 14l73 -12q18 -4 15 -18z" />
<glyph unicode="&#x43a;" horiz-adv-x="521" d="M510 0h-136q-16 0 -21 12l-114 177l-33 -38v-133q0 -18 -17 -18h-115q-18 0 -18 18v484q0 18 18 18h115q17 0 17 -18v-177l131 184q7 11 20 11h132q11 0 14.5 -6.5t-3.5 -14.5l-161 -206l182 -272q6 -9 3 -15t-14 -6z" />
<glyph unicode="&#x43b;" horiz-adv-x="572" d="M229 148q-20 -80 -65 -114.5t-132 -38.5q-18 0 -18 18v98q0 16 17 19q23 4 38 21.5t24 57.5q20 84 26 294q2 17 18 17h361q18 0 18 -17v-485q0 -18 -18 -18h-116q-18 0 -18 18v369h-105q-5 -150 -30 -239z" />
<glyph unicode="&#x43c;" horiz-adv-x="694" d="M188 0h-114q-18 0 -18 18v485q0 17 18 17h129q16 0 20 -13l57 -116q43 -88 65 -142h4q22 54 65 142l56 116q6 13 21 13h129q18 0 18 -17v-485q0 -18 -18 -18h-114q-17 0 -17 18v116q0 79 5 161h-2q-25 -59 -49 -113l-41 -87q-6 -13 -21 -13h-68q-15 0 -21 13l-41 87 q-24 54 -49 113h-2q5 -82 5 -161v-116q0 -18 -17 -18z" />
<glyph unicode="&#x43d;" horiz-adv-x="557" d="M192 0h-118q-18 0 -18 18v485q0 17 18 17h118q17 0 17 -17v-169h139v169q0 17 18 17h118q17 0 17 -17v-485q0 -18 -17 -18h-118q-18 0 -18 18v180h-139v-180q0 -18 -17 -18z" />
<glyph unicode="&#x43e;" horiz-adv-x="555" d="M515 199q0 -99 -63.5 -155.5t-173.5 -56.5t-174 56.5t-64 155.5v120q0 100 64 157.5t174 57.5t173.5 -57.5t63.5 -157.5v-120zM196 199q0 -77 82 -77t82 77v120q0 38 -21 58.5t-61 20.5t-61 -20.5t-21 -58.5v-120z" />
<glyph unicode="&#x43f;" horiz-adv-x="557" d="M74 520h410q17 0 17 -17v-485q0 -18 -17 -18h-118q-18 0 -18 18v369h-139v-369q0 -18 -17 -18h-118q-18 0 -18 18v485q0 17 18 17z" />
<glyph unicode="&#x440;" horiz-adv-x="555" d="M67 496q101 38 212 38q107 0 172 -60.5t65 -166.5v-99q0 -101 -60 -161t-157 -60q-49 0 -92 17v-176q0 -18 -17 -18h-118q-18 0 -18 18v649q0 15 13 19zM277 120q84 0 84 85v105q0 88 -85 88q-39 0 -69 -11v-250q29 -17 70 -17z" />
<glyph unicode="&#x441;" horiz-adv-x="472" d="M454 42q-78 -55 -177 -55q-112 0 -174.5 58.5t-62.5 159.5v113q0 100 62.5 158t173.5 58q87 0 164 -47q14 -10 5 -25l-53 -80q-8 -14 -25 -6q-43 23 -84 23t-64.5 -21.5t-23.5 -59.5v-113q0 -41 23.5 -62t63.5 -21q50 0 96 29q15 9 25 -5l54 -80q10 -14 -3 -24z" />
<glyph unicode="&#x442;" horiz-adv-x="467" d="M293 0h-118q-18 0 -18 18v369h-124q-17 0 -17 18v98q0 17 17 17h400q18 0 18 -17v-98q0 -18 -18 -18h-123v-369q0 -18 -17 -18z" />
<glyph unicode="&#x443;" horiz-adv-x="560" d="M351 159v344q0 17 18 17h118q17 0 17 -17v-453q0 -131 -57 -191.5t-180 -60.5t-199 55q-15 9 -5 24l53 81q9 13 23 6q57 -34 121 -34q48 0 71.5 22t22.5 75q-49 -14 -91 -14q-93 0 -153 57.5t-60 156.5v276q0 17 18 17h118q17 0 17 -17v-273q0 -85 83 -85q39 0 65 14z " />
<glyph unicode="&#x444;" horiz-adv-x="777" d="M446 -190h-115q-17 0 -17 17v173h-60q-90 0 -153 56t-63 164v79q0 108 63.5 164.5t157.5 56.5h55v177q0 18 17 18h115q17 0 17 -18v-177h59q93 0 154.5 -56.5t61.5 -164.5v-79q0 -108 -62 -164t-150 -56h-63v-173q0 -17 -17 -17zM189 220q0 -45 21 -65.5t63 -20.5h41v253 h-44q-81 0 -81 -86v-81zM463 134h40q85 0 85 86v81q0 86 -81 86h-44v-253z" />
<glyph unicode="&#x445;" horiz-adv-x="518" d="M358 262l145 -241q5 -9 1.5 -15t-13.5 -6h-139q-14 0 -20 13l-73 143l-72 -143q-7 -13 -21 -13h-139q-10 0 -13.5 6t1.5 15l145 241l-137 237q-5 9 -1.5 15t13.5 6h135q15 0 21 -13l68 -148l68 148q6 13 21 13h135q10 0 13.5 -6t-1.5 -15z" />
<glyph unicode="&#x446;" horiz-adv-x="592" d="M546 -131h-105q-18 0 -18 18v113h-349q-18 0 -18 18v485q0 17 18 17h118q17 0 17 -17v-368h139v368q0 17 18 17h118q17 0 17 -17v-368h45q18 0 18 -18v-230q0 -18 -18 -18z" />
<glyph unicode="&#x447;" horiz-adv-x="536" d="M463 0h-118q-18 0 -18 18v145q-38 -13 -90 -13q-84 0 -142.5 53.5t-58.5 165.5v134q0 17 17 17h118q18 0 18 -17v-125q0 -89 69 -89q42 0 69 12v202q0 17 18 17h118q17 0 17 -17v-485q0 -18 -17 -18z" />
<glyph unicode="&#x448;" horiz-adv-x="793" d="M719 0h-645q-18 0 -18 18v485q0 17 18 17h113q18 0 18 -17v-368h118v368q0 17 18 17h112q17 0 17 -17v-368h118v368q0 17 18 17h113q18 0 18 -17v-485q0 -18 -18 -18z" />
<glyph unicode="&#x449;" horiz-adv-x="828" d="M782 -131h-105q-18 0 -18 18v113h-585q-18 0 -18 18v485q0 17 18 17h113q18 0 18 -17v-368h118v368q0 17 18 17h112q17 0 17 -17v-368h118v368q0 17 18 17h113q18 0 18 -17v-368h45q18 0 18 -18v-230q0 -18 -18 -18z" />
<glyph unicode="&#x44a;" horiz-adv-x="599" d="M373 0h-222q-18 0 -18 18v374h-100q-17 0 -17 17v94q0 17 17 17h235q17 0 17 -17v-148h88q91 0 148.5 -46.5t57.5 -132.5q0 -88 -57 -132t-149 -44zM285 236v-115h64q76 0 76 58q0 57 -76 57h-64z" />
<glyph unicode="&#x44b;" horiz-adv-x="769" d="M296 0h-222q-18 0 -18 18v485q0 17 18 17h117q18 0 18 -17v-148h87q91 0 148.5 -46.5t57.5 -132.5q0 -88 -57 -132t-149 -44zM209 236v-115h63q76 0 76 58q0 57 -76 57h-63zM696 0h-118q-18 0 -18 18v485q0 17 18 17h118q17 0 17 -17v-485q0 -18 -17 -18z" />
<glyph unicode="&#x44c;" horiz-adv-x="522" d="M296 0h-222q-18 0 -18 18v485q0 17 18 17h117q18 0 18 -17v-148h87q91 0 148.5 -46.5t57.5 -132.5q0 -88 -57 -132t-149 -44zM209 236v-115h63q76 0 76 58q0 57 -76 57h-63z" />
<glyph unicode="&#x44d;" horiz-adv-x="483" d="M202 120q39 0 62 21t24 59l-1 16h-144q-17 0 -17 17v62q0 18 17 18h143l2 10q-1 36 -24 56.5t-62 20.5q-54 0 -97 -21q-14 -6 -24 7l-52 79q-10 15 5 23q84 46 181 46q99 0 163.5 -56t64.5 -158v-117q0 -104 -63.5 -160t-164.5 -56q-110 0 -188 51q-14 9 -5 24l54 78 q8 14 25 6q46 -26 101 -26z" />
<glyph unicode="&#x44e;" horiz-adv-x="772" d="M273 337q5 92 66 144t162 52q107 0 169 -57t62 -157v-120q0 -98 -62 -154.5t-169 -56.5q-101 0 -161.5 51t-66.5 141l-5 15h-63v-177q0 -18 -17 -18h-114q-18 0 -18 18v485q0 17 18 17h114q17 0 17 -17v-169h64zM502 124q78 0 78 77v116q0 39 -20 60t-58 21 q-78 0 -78 -81v-116q0 -77 78 -77z" />
<glyph unicode="&#x44f;" horiz-adv-x="542" d="M177 0h-135q-23 0 -11 21l113 169q-50 17 -78.5 59.5t-28.5 96.5q0 81 55.5 127.5t146.5 46.5h229q18 0 18 -17v-485q0 -18 -18 -18h-117q-18 0 -18 18v156h-37l-99 -162q-6 -12 -20 -12zM192 347q0 -56 65 -56h76v109h-76q-65 0 -65 -53z" />
<glyph unicode="&#x451;" horiz-adv-x="530" d="M240 652q0 -35 -20 -54.5t-53 -19.5t-54 19.5t-21 53.5q0 35 21 55t54 20t53 -19.5t20 -54.5zM460 652q0 -35 -20 -54.5t-53 -19.5q-34 0 -54.5 19.5t-20.5 54.5t20.5 54.5t54.5 19.5q33 0 53 -19.5t20 -54.5zM495 321v-96q0 -17 -18 -17h-283v-16q0 -38 23 -57.5 t63 -19.5q65 0 127 36q13 10 23 -4l52 -69q10 -15 -3 -25q-86 -66 -204 -66q-103 0 -169 54t-66 154v126q0 106 65 159.5t167 53.5q99 0 161 -53t62 -160zM348 328q0 39 -21 59t-56 20q-77 0 -77 -79v-21h154v21z" />
<glyph unicode="&#x452;" horiz-adv-x="566" d="M209 494q43 15 100 15q95 0 151 -60.5t56 -170.5v-283q0 -97 -46.5 -147t-135.5 -50q-24 0 -54 4q-16 4 -16 20v93q0 19 19 17q9 -1 25 -1q55 0 55 77v270q0 51 -20.5 73.5t-64.5 22.5q-37 0 -69 -13v-343q0 -18 -18 -18h-118q-17 0 -17 18v552h-54q-18 0 -18 17v48 q0 18 18 18h54v44q0 18 17 18h118q18 0 18 -18v-44h102q18 0 18 -18v-48q0 -17 -18 -17h-102v-76z" />
<glyph unicode="&#x453;" horiz-adv-x="425" d="M192 -4h-118q-18 0 -18 18v489q0 17 18 17h319q17 0 17 -17v-100q0 -18 -17 -18h-184v-371q0 -18 -17 -18zM256 575h-87q-10 0 -13.5 6.5t2.5 14.5l82 130q8 12 21 12h113q11 0 13.5 -6.5t-4.5 -15.5l-106 -131q-7 -10 -21 -10z" />
<glyph unicode="&#x454;" horiz-adv-x="483" d="M281 120q55 0 101 26q17 8 25 -6l54 -78q9 -15 -5 -24q-78 -51 -188 -51q-100 0 -164 56t-64 160v117q0 102 64.5 158t163.5 56q97 0 181 -46q15 -8 5 -23l-52 -79q-10 -13 -24 -7q-44 21 -97 21q-39 0 -62 -20.5t-24 -56.5l2 -10h143q17 0 17 -18v-62q0 -17 -17 -17 h-144l-1 -16q1 -38 24 -59t62 -21z" />
<glyph unicode="&#x455;" horiz-adv-x="496" d="M469 162q0 -87 -58.5 -131t-167.5 -44q-115 0 -208 65q-14 10 -5 25l47 80q10 16 24 6q66 -45 143 -45q32 0 51.5 10.5t19.5 29.5q0 18 -18.5 27t-53.5 15q-198 33 -198 169q0 81 58 123t159 42q89 0 177 -46q16 -8 6 -24l-46 -78q-9 -15 -24 -7q-55 29 -116 29 q-64 0 -64 -37q0 -20 18.5 -29t68.5 -17q187 -32 187 -163z" />
<glyph unicode="&#x456;" horiz-adv-x="265" d="M192 0h-118q-18 0 -18 18v485q0 17 18 17h118q17 0 17 -17v-485q0 -18 -17 -18zM217 676q0 -36 -23.5 -60t-60.5 -24t-61 24t-24 60q0 37 24 60.5t61 23.5t60.5 -23.5t23.5 -60.5z" />
<glyph unicode="&#x457;" horiz-adv-x="265" d="M192 0h-118q-18 0 -18 18v485q0 17 18 17h118q17 0 17 -17v-485q0 -18 -17 -18zM108 653q0 -33 -19.5 -52t-50.5 -19q-32 0 -52 19t-20 51q0 33 20 52.5t52 19.5q31 0 50.5 -19t19.5 -52zM301 653q0 -33 -20 -52t-52 -19q-31 0 -51 19.5t-20 51.5t20 51.5t51 19.5 q32 0 52 -19t20 -52z" />
<glyph unicode="&#x458;" horiz-adv-x="273" d="M217 -9q0 -92 -48 -143t-136 -51q-32 0 -57 5q-15 3 -15 19v99q0 19 18 17q9 -1 27 -1q58 0 58 73v494q0 17 18 17h118q17 0 17 -17v-512zM226 676q0 -36 -24 -60t-60 -24q-37 0 -61 24t-24 60q0 37 24 60.5t61 23.5t60.5 -23.5t23.5 -60.5z" />
<glyph unicode="&#x459;" horiz-adv-x="832" d="M232 158q-22 -84 -67.5 -120t-133.5 -40q-18 0 -18 17v99q0 16 17 18q25 3 40.5 20.5t25.5 59.5q19 80 25 290q1 18 18 18h363q17 0 17 -17v-148h87q93 0 149.5 -47t56.5 -132q0 -88 -55.5 -132t-150.5 -44h-221q-17 0 -17 18v371h-108q-8 -156 -28 -231zM519 236v-114 h63q74 0 74 57q1 29 -18 43t-56 14h-63z" />
<glyph unicode="&#x45a;" horiz-adv-x="811" d="M192 0h-118q-18 0 -18 18v485q0 17 18 17h118q17 0 17 -17v-163h138v163q0 17 18 17h118q17 0 17 -17v-155h86q94 0 150 -45.5t56 -130.5q0 -84 -56 -128t-150 -44h-221q-18 0 -18 18v187h-138v-187q0 -18 -17 -18zM500 229v-107h62q74 0 74 55q0 52 -74 52h-62z" />
<glyph unicode="&#x45b;" horiz-adv-x="566" d="M209 494q43 15 100 15q95 0 151 -60.5t56 -170.5v-260q0 -18 -17 -18h-119q-17 0 -17 18v260q0 51 -20.5 73.5t-64.5 22.5q-37 0 -69 -13v-343q0 -18 -18 -18h-118q-17 0 -17 18v552h-54q-18 0 -18 17v48q0 18 18 18h54v44q0 18 17 18h118q18 0 18 -18v-44h122 q18 0 18 -18v-48q0 -17 -18 -17h-122v-76z" />
<glyph unicode="&#x45c;" horiz-adv-x="521" d="M510 0h-136q-16 0 -21 12l-114 177l-33 -38v-133q0 -18 -17 -18h-115q-18 0 -18 18v484q0 18 18 18h115q17 0 17 -18v-177l131 184q7 11 20 11h132q11 0 14.5 -6.5t-3.5 -14.5l-161 -206l182 -272q6 -9 3 -15t-14 -6zM305 573h-87q-10 0 -13.5 6.5t2.5 14.5l82 130 q7 12 21 12h113q11 0 13.5 -6.5t-4.5 -15.5l-106 -131q-7 -10 -21 -10z" />
<glyph unicode="&#x45d;" horiz-adv-x="581" d="M196 0h-122q-18 0 -18 18v485q0 17 18 17h115q18 0 18 -17v-157q0 -49 -2 -127h1q25 56 78 147l79 142q5 12 20 12h124q18 0 18 -17v-485q0 -18 -18 -18h-115q-17 0 -17 18v157q0 55 2 125h-1q-24 -57 -79 -150l-80 -138q-6 -12 -21 -12zM354 573h-87q-14 0 -21 10 l-106 131q-7 9 -4.5 15.5t13.5 6.5h113q14 0 21 -12l82 -130q6 -8 2.5 -14.5t-13.5 -6.5z" />
<glyph unicode="&#x45e;" horiz-adv-x="560" d="M449 707q-8 -64 -51.5 -100t-116.5 -36t-116.5 35.5t-51.5 98.5q-3 16 15 20l74 12q15 3 20 -14q12 -44 59 -44q49 0 59 44q6 17 21 14l73 -12q18 -4 15 -18zM351 159v344q0 17 18 17h118q17 0 17 -17v-453q0 -131 -57 -191.5t-180 -60.5t-199 55q-15 9 -5 24l53 81 q9 13 23 6q57 -34 121 -34q48 0 71.5 22t22.5 75q-49 -14 -91 -14q-93 0 -153 57.5t-60 156.5v276q0 17 18 17h118q17 0 17 -17v-273q0 -85 83 -85q39 0 65 14z" />
<glyph unicode="&#x45f;" horiz-adv-x="557" d="M366 520h118q17 0 17 -17v-485q0 -18 -17 -18h-135v-113q0 -18 -18 -18h-105q-18 0 -18 18v113h-134q-18 0 -18 18v485q0 17 18 17h118q17 0 17 -17v-367h139v367q0 17 18 17z" />
<glyph unicode="&#x490;" horiz-adv-x="515" d="M217 0h-125q-18 0 -18 18v679q0 18 18 18h266v139q0 17 18 17h110q18 0 18 -17v-271q0 -17 -18 -17h-251v-548q0 -18 -18 -18z" />
<glyph unicode="&#x491;" horiz-adv-x="425" d="M274 520v107q0 17 18 17h101q17 0 17 -17v-224q0 -18 -17 -18h-184v-371q0 -18 -17 -18h-118q-18 0 -18 18v489q0 17 18 17h200z" />
<glyph unicode="&#x2000;" horiz-adv-x="500" />
<glyph unicode="&#x2001;" horiz-adv-x="1000" />
<glyph unicode="&#x2002;" horiz-adv-x="500" />
<glyph unicode="&#x2003;" horiz-adv-x="1000" />
<glyph unicode="&#x2004;" horiz-adv-x="333" />
<glyph unicode="&#x2005;" horiz-adv-x="250" />
<glyph unicode="&#x2006;" horiz-adv-x="166" />
<glyph unicode="&#x2007;" horiz-adv-x="166" />
<glyph unicode="&#x2008;" horiz-adv-x="125" />
<glyph unicode="&#x2009;" horiz-adv-x="200" />
<glyph unicode="&#x200a;" horiz-adv-x="55" />
<glyph unicode="&#x2010;" horiz-adv-x="402" d="M328 231h-254q-18 0 -18 18v100q0 18 18 18h254q18 0 18 -18v-100q0 -18 -18 -18z" />
<glyph unicode="&#x2011;" horiz-adv-x="402" d="M328 231h-254q-18 0 -18 18v100q0 18 18 18h254q18 0 18 -18v-100q0 -18 -18 -18z" />
<glyph unicode="&#x2012;" horiz-adv-x="402" d="M328 231h-254q-18 0 -18 18v100q0 18 18 18h254q18 0 18 -18v-100q0 -18 -18 -18z" />
<glyph unicode="&#x2013;" horiz-adv-x="607" d="M551 349v-100q0 -18 -18 -18h-459q-18 0 -18 18v100q0 18 18 18h459q18 0 18 -18z" />
<glyph unicode="&#x2014;" horiz-adv-x="1000" d="M944 349v-100q0 -18 -17 -18h-853q-18 0 -18 18v100q0 18 18 18h853q17 0 17 -18z" />
<glyph unicode="&#x2018;" horiz-adv-x="259" d="M32 452l82 249q5 14 20 14h83q20 0 15 -20l-58 -248q-3 -15 -19 -15h-108q-9 0 -13.5 5.5t-1.5 14.5z" />
<glyph unicode="&#x2019;" horiz-adv-x="258" d="M237 695l-79 -249q-5 -14 -20 -14h-87q-19 0 -16 19l60 248q3 16 19 16h108q22 0 15 -20z" />
<glyph unicode="&#x201a;" horiz-adv-x="251" d="M208 126l-80 -249q-5 -14 -20 -14h-87q-20 0 -15 19l59 248q5 16 19 16h109q20 0 15 -20z" />
<glyph unicode="&#x201c;" horiz-adv-x="468" d="M157 432h-109q-20 0 -15 20l80 248q5 15 20 15h87q20 0 15 -20l-59 -248q-3 -15 -19 -15zM363 432h-109q-20 0 -15 20l80 248q5 15 20 15h87q20 0 15 -20l-59 -248q-3 -15 -19 -15z" />
<glyph unicode="&#x201d;" horiz-adv-x="464" d="M138 432h-87q-21 0 -16 19l60 248q3 16 19 16h108q22 0 15 -20l-79 -248q-6 -15 -20 -15zM344 432h-87q-21 0 -16 19l60 248q3 16 19 16h108q22 0 15 -20l-79 -248q-4 -15 -20 -15z" />
<glyph unicode="&#x201e;" horiz-adv-x="456" d="M108 -139h-87q-9 0 -13.5 5.5t-2.5 13.5l60 249q3 15 19 15h108q22 0 15 -20l-79 -248q-6 -15 -20 -15zM314 -139h-87q-9 0 -13.5 5.5t-2.5 13.5l60 249q3 15 19 15h108q22 0 15 -20l-79 -248q-4 -15 -20 -15z" />
<glyph unicode="&#x2020;" horiz-adv-x="534" d="M324 -139h-112q-17 0 -17 18v515h-136q-18 0 -18 18v99q0 18 18 18h136v198q0 18 17 18h112q17 0 17 -18v-198h134q18 0 18 -18v-99q0 -18 -18 -18h-134v-515q0 -18 -17 -18z" />
<glyph unicode="&#x2021;" horiz-adv-x="534" d="M324 -139h-112q-17 0 -17 18v203h-136q-18 0 -18 18v99q0 18 18 18h136v177h-136q-18 0 -18 18v99q0 18 18 18h136v198q0 18 17 18h112q17 0 17 -18v-198h134q18 0 18 -18v-99q0 -18 -18 -18h-134v-177h134q18 0 18 -18v-99q0 -18 -18 -18h-134v-203q0 -18 -17 -18z" />
<glyph unicode="&#x2022;" horiz-adv-x="404" d="M202 206q-59 0 -98 39.5t-39 99.5t39 98.5t98 38.5t98 -38.5t39 -98.5q0 -61 -39 -100t-98 -39z" />
<glyph unicode="&#x2026;" horiz-adv-x="746" d="M217 78q0 -37 -25.5 -62t-64.5 -25t-64 25t-25 62q0 39 24.5 63.5t64.5 24.5t65 -24.5t25 -63.5zM463 78q0 -37 -25.5 -62t-64.5 -25t-64 25t-25 62q0 39 25 63.5t64 24.5q40 0 65 -24.5t25 -63.5zM708 78q0 -37 -25 -62t-64 -25t-64 25t-25 62q0 39 24.5 63.5t64.5 24.5 t64.5 -24.5t24.5 -63.5z" />
<glyph unicode="&#x202f;" horiz-adv-x="200" />
<glyph unicode="&#x2030;" horiz-adv-x="1160" d="M1131 134q0 -67 -41 -104t-107 -37q-65 0 -106.5 37t-41.5 104v106q0 67 41 103.5t107 36.5q67 0 107.5 -36.5t40.5 -103.5v-106zM941 135q0 -23 12 -34.5t30 -11.5t30 11.5t12 34.5v103q0 22 -12 34t-30 12t-30 -12t-12 -34v-103zM328 474q0 -67 -41 -104t-107 -37 q-65 0 -106.5 37t-41.5 104v106q0 67 41 103.5t107 36.5q67 0 107.5 -36.5t40.5 -103.5v-106zM234 0h-88q-10 0 -13 6.5t2 14.5l429 680q7 11 22 11h87q10 0 13.5 -6.5t-1.5 -14.5l-430 -680q-7 -11 -21 -11zM138 476q0 -24 12 -35.5t30 -11.5q43 0 43 47v102q0 23 -12 34.5 t-31 11.5q-18 0 -30 -11.5t-12 -34.5v-102zM792 134q0 -67 -41 -104t-107 -37t-107 37t-41 104v106q0 67 41 103.5t107 36.5t107 -36.5t41 -103.5v-106zM602 135q0 -23 12 -34.5t30 -11.5t30 11.5t12 34.5v103q0 22 -12 34t-30 12t-30 -12t-12 -34v-103z" />
<glyph unicode="&#x2039;" horiz-adv-x="347" d="M300 71h-114q-13 0 -21 11l-132 197q-7 12 0 24l132 197q8 11 21 11h114q23 0 11 -21l-136 -199l136 -199q12 -21 -11 -21z" />
<glyph unicode="&#x203a;" horiz-adv-x="347" d="M161 71h-114q-23 0 -11 21l136 199l-136 199q-12 21 11 21h114q13 0 21 -11l132 -197q8 -12 0 -24l-132 -197q-8 -11 -21 -11z" />
<glyph unicode="&#x2044;" horiz-adv-x="224" d="M395 694l-456 -683q-7 -11 -21 -11h-78q-10 0 -13 6.5t2 14.5l455 683q7 11 21 11h78q10 0 13.5 -6.5t-1.5 -14.5z" />
<glyph unicode="&#x205f;" horiz-adv-x="250" />
<glyph unicode="&#x20ac;" horiz-adv-x="669" d="M391 141q89 0 157 43q15 9 24 -5l64 -97q10 -15 -4 -24q-101 -71 -244 -71q-129 0 -207 64.5t-83 185.5l-5 2h-43q-18 0 -18 18v53q0 18 18 18h48v52h-48q-18 0 -18 18v54q0 17 18 17h44l4 5q3 122 81 188t206 66q136 0 238 -64q15 -9 5 -24l-63 -97q-9 -13 -24 -5 q-68 37 -150 37q-58 0 -89 -26.5t-33 -74.5l4 -5h161q18 0 18 -17v-54q0 -18 -18 -18h-167v-52h167q18 0 18 -18v-53q0 -18 -18 -18h-162l-3 -1q8 -97 122 -97z" />
<glyph unicode="&#x20bd;" horiz-adv-x="656" d="M626 468q0 -111 -66.5 -176.5t-179.5 -65.5h-121v-57h128q18 0 18 -17v-62q0 -18 -18 -18h-128v-54q0 -18 -17 -18h-119q-18 0 -18 18v54h-59q-18 0 -18 18v62q0 17 18 17h59v528q0 18 18 18h257q113 0 179.5 -67t66.5 -180zM471 471q0 104 -114 104h-98v-210h98 q114 0 114 106z" />
<glyph unicode="&#x2122;" horiz-adv-x="666" d="M348 415h-43q-10 0 -10 10v280q0 10 10 10h57q10 0 13 -9l54 -127l19 -50l19 50l54 127q3 9 13 9h57q10 0 10 -10v-280q0 -10 -10 -10h-43q-10 0 -10 10v99l6 100h-2l-25 -66l-41 -86q-4 -10 -13 -10h-30q-9 0 -13 10l-41 86l-25 66h-2l6 -100v-99q0 -10 -10 -10z M172 415h-46q-10 0 -10 10v230h-78q-10 0 -10 10v40q0 10 10 10h222q10 0 10 -10v-40q0 -10 -10 -10h-78v-230q0 -10 -10 -10z" />
<glyph unicode="&#x2202;" horiz-adv-x="545" d="M103 623v88q0 17 17 17q197 -4 289.5 -104.5t92.5 -321.5v-46q0 -128 -62 -197t-171 -69q-103 0 -168.5 68.5t-65.5 181.5q0 105 57.5 171t147.5 66q70 0 118 -42q-29 164 -237 171q-18 0 -18 17zM185 237q0 -115 84 -115t84 115q0 108 -85 108q-83 0 -83 -108z" />
<glyph unicode="&#x220f;" horiz-adv-x="654" d="M71 -121v848q0 18 18 18h476q18 0 18 -18v-848q0 -18 -18 -18h-127q-18 0 -18 18v720h-186v-720q0 -18 -18 -18h-127q-18 0 -18 18z" />
<glyph unicode="&#x2211;" horiz-adv-x="549" d="M495 -139h-443q-18 0 -18 18v72q0 9 6 21l203 327l-203 335q-6 12 -6 21v72q0 18 18 18h443q17 0 17 -18v-98q0 -18 -17 -18h-266l149 -257q6 -11 6 -22v-66q0 -10 -6 -21l-149 -250h266q17 0 17 -18v-98q0 -18 -17 -18z" />
<glyph unicode="&#x221a;" horiz-adv-x="591" d="M351 -139h-117q-14 0 -19 15l-120 401h-62q-18 0 -18 18v100q0 18 18 18h156q15 0 20 -15l55 -205q17 -71 26 -134h4q9 64 22 125l123 545q3 16 19 16h108q19 0 16 -20l-212 -849q-4 -15 -19 -15z" />
<glyph unicode="&#x221e;" horiz-adv-x="731" d="M366 238q-70 -91 -152 -91q-68 0 -119.5 48.5t-51.5 133.5t51.5 133t119.5 48q85 0 152 -92q67 92 152 92q68 0 119 -48t51 -133t-51 -133.5t-119 -48.5q-82 0 -152 91zM154 329q0 -35 18 -50.5t45 -15.5q8 0 14.5 1.5t14.5 6.5t12.5 7.5t13 11.5t11.5 11.5t13 14 t12 13.5q-3 4 -12 13.5t-13 13.5l-11.5 11.5t-13 11t-12.5 8t-14.5 6t-14.5 1.5q-27 0 -45 -15.5t-18 -49.5zM424 329q41 -47 60 -57q15 -9 31 -9q26 0 44 15.5t18 50.5q0 34 -18 49.5t-44 15.5q-6 0 -11.5 -1t-11.5 -4t-10.5 -5t-10.5 -7t-9 -8l-10 -10l-9.5 -9.5 t-9.5 -10.5t-9 -10z" />
<glyph unicode="&#x222b;" horiz-adv-x="428" d="M141 540q0 104 56 158t143 54q28 0 60 -3q16 -1 16 -18v-98q0 -19 -18 -17q-14 1 -32 1q-79 0 -79 -78v-471q0 -104 -56 -158t-142 -54q-29 0 -60 3q-17 1 -17 18v98q0 18 19 18q26 -2 32 -2q78 0 78 78v471z" />
<glyph unicode="&#x2248;" d="M560 415q-50 -71 -139 -71q-42 0 -106 26q-54 23 -78 23q-43 0 -70 -25q-13 -12 -24 -1l-71 63q-12 10 -4 24q50 72 143 72q42 0 106 -26q53 -23 80 -23q40 0 66 25q14 11 25 1l70 -62q11 -13 2 -26zM560 208q-50 -71 -139 -71q-44 0 -106 27q-52 22 -78 22 q-43 0 -70 -24q-13 -12 -24 -2l-71 63q-11 10 -4 25q50 72 143 72q44 0 106 -27q51 -22 80 -22q39 0 66 24q13 11 25 2l70 -63q12 -12 2 -26z" />
<glyph unicode="&#x2260;" d="M557 490v-107q0 -18 -18 -18h-144l-37 -70h181q18 0 18 -18v-107q0 -18 -18 -18h-253l-34 -65q-5 -12 -20 -12h-100q-10 0 -14 6t1 15l30 56h-59q-17 0 -17 18v107q0 18 17 18h130l38 70h-168q-17 0 -17 18v107q0 17 17 17h239l35 68q5 12 20 12h100q23 0 13 -20l-31 -60 h73q18 0 18 -17z" />
<glyph unicode="&#x2264;" d="M549 290v-110q0 -10 -6 -14t-15 0l-448 198q-14 6 -14 20v59q0 14 14 20l448 198q9 4 15 0.5t6 -13.5v-111q0 -14 -14 -20l-273 -103l273 -104q14 -6 14 -20zM549 118v-91q0 -17 -18 -17h-447q-18 0 -18 17v91q0 17 18 17h447q18 0 18 -17z" />
<glyph unicode="&#x2265;" d="M550 364l-448 -198q-9 -4 -15 0t-6 14v110q0 14 14 20l273 104l-273 103q-14 6 -14 20v111q0 10 6 13.5t15 -0.5l448 -198q14 -6 14 -20v-59q0 -14 -14 -20zM546 10h-447q-18 0 -18 17v91q0 17 18 17h447q18 0 18 -17v-91q0 -17 -18 -17z" />
<glyph unicode="&#x25ca;" horiz-adv-x="580" d="M244 715h92q12 0 21 -12l196 -333q6 -12 0 -25l-196 -333q-9 -12 -21 -12h-92q-12 0 -21 12l-196 333q-6 13 0 25l196 333q9 12 21 12zM176 358l114 -202l114 202l-114 203z" />
<glyph unicode="&#x25fc;" horiz-adv-x="520" d="M0 520h520v-520h-520v520z" />
</font>
</defs>
</svg>
